<svg width="96" height="31" viewBox="0 0 96 31" fill="none" xmlns="http://www.w3.org/2000/svg">
<path d="M91.2965 11.418H95.6553C95.104 7.14207 92.0056 4.89453 87.6992 4.89453C83.3405 4.89453 80.4259 7.22435 80.4259 11.2261C80.4259 15.7761 84.1807 16.7901 86.1763 17.2014C88.7495 17.7221 91.2703 17.777 91.2703 20.0793C91.2703 21.6416 90.0099 22.4091 88.2244 22.4091C86.0188 22.4091 84.5485 21.2579 84.1807 19.1749H79.8745C80.137 23.67 83.2618 26.082 87.8569 26.082C92.1106 26.082 95.6027 24.0537 95.6027 19.6682C95.6027 14.9537 91.5854 14.1041 88.7758 13.6655C86.8589 13.3641 84.7584 13.0899 84.7584 10.9794C84.7584 9.49931 85.8349 8.59484 87.6467 8.59484C89.7474 8.59484 91.0076 9.82832 91.2965 11.418Z" fill="#111111"/>
<path d="M77.4853 5.57959H73.3628V25.4513H77.4853V5.57959Z" fill="#111111"/>
<path d="M60.9172 18.5172H66.3001C65.4597 20.6553 63.5691 21.6692 61.3898 21.6692C57.5563 21.6692 55.7708 18.572 55.7708 15.5022C55.7708 12.4049 57.4512 9.25286 61.3636 9.25286C63.753 9.25286 65.5384 10.4041 66.2212 12.4597L70.6587 12.4598C69.8973 7.82766 66.0112 5.16895 61.4162 5.16895C55.7445 5.16895 51.4907 9.19801 51.4907 15.557C51.4907 21.9982 56.112 25.8081 61.3898 25.8081C66.5888 25.8081 70.6587 22.2723 70.6587 16.7357V15.1184H60.9172V18.5172Z" fill="#111111"/>
<path d="M42.0641 5.16846C37.3377 5.16846 33.8455 8.26563 33.8717 13.4186H38.1255C38.0729 11.171 39.4383 9.11537 41.854 9.11537C43.9547 9.11537 45.1887 10.6503 45.1887 12.4044C45.1887 14.1586 43.9547 15.1454 41.6702 16.2144C38.5455 17.6671 36.3137 18.599 34.0292 19.4213V25.4513H49.9414V21.3947H39.0175C39.0175 21.3947 39.0539 21.3828 39.0718 21.3772C40.9298 20.7895 42.3257 20.151 43.9809 19.3939C47.5257 17.7493 49.5475 15.6935 49.5475 12.1852C49.5475 7.88188 46.5017 5.16846 42.0641 5.16846Z" fill="#111111"/>
<path d="M22.6859 18.4622C17.3293 18.4896 16.4628 21.8609 16.174 24.7115L16.0428 25.9723H14.9661L14.8348 24.7115C14.5461 21.8609 13.6533 18.4896 8.4805 18.4622C7.61402 16.5983 7.24641 15.0908 7.24641 13.3914C7.24641 9.14305 10.5812 5.16858 15.5175 5.16858C20.4539 5.16858 23.7361 9.11549 23.7361 13.4189C23.7361 15.0908 23.5786 16.5983 22.6859 18.4622ZM15.4651 0.015625C7.32526 0.015625 0.655762 6.97766 0.655762 15.5018C0.655762 24.0537 7.32526 31.0156 15.4651 31.0156C23.6836 31.0156 30.3268 24.0537 30.3268 15.5018C30.3268 6.97768 23.6836 0.015625 15.4651 0.015625Z" fill="#111111"/>
</svg>
