<svg width="65" height="64" viewBox="0 0 65 64" fill="none" xmlns="http://www.w3.org/2000/svg">
<g opacity="0.8" clip-path="url(#clip0_3738_1085)">
<path d="M49.9071 50.8692C49.897 48.0526 47.6096 45.7752 44.793 45.7777H42.0972C40.8578 45.7769 39.6604 46.2268 38.7282 47.0436C37.7963 46.2269 36.5994 45.777 35.3603 45.7777H32.6645C31.7107 45.7794 30.7767 46.0498 29.9697 46.558C29.1627 46.0498 28.2287 45.7794 27.2749 45.7777H24.5802C23.7639 45.7767 22.9599 45.9754 22.2381 46.3565C21.6745 45.7802 20.9809 45.3476 20.2154 45.0949L17.4038 44.1634C16.6014 43.8943 15.745 43.8273 14.9106 43.9683C14.6715 43.231 14.2601 42.5614 13.71 42.0153L11.593 39.9079C11.283 39.6006 10.9325 39.337 10.5511 39.1244C10.736 38.5926 10.8302 38.0334 10.8298 37.4704V34.7907C10.8243 33.942 10.603 33.1087 10.1867 32.3692C13.9713 28.5921 19.1025 26.4747 24.4494 26.4834H28.469V24.3396H24.4494C19.5159 24.3236 14.7196 25.9636 10.8288 28.997V26.7514C10.8292 26.1884 10.735 25.6293 10.5501 25.0975C10.9313 24.8851 11.2814 24.6215 11.5909 24.3139L13.709 22.2076C14.2592 21.6608 14.6709 20.9905 14.9095 20.2525C15.743 20.395 16.5989 20.3288 17.4006 20.0595L20.2133 19.128C20.9791 18.8745 21.6735 18.4416 22.2381 17.8653C22.9599 18.2464 23.7639 18.4451 24.5802 18.4442H27.2749C28.2287 18.4424 29.1627 18.172 29.9697 17.6638C30.7767 18.172 31.7107 18.4424 32.6645 18.4442H35.3603C36.09 18.4452 36.8112 18.2892 37.4752 17.9865L36.5898 16.0356C36.2036 16.2109 35.7844 16.3012 35.3603 16.3004H32.6645C31.9317 16.2961 31.2265 16.0207 30.6847 15.5275C30.2775 15.1625 29.6609 15.1625 29.2537 15.5275C28.7118 16.0199 28.0071 16.2949 27.2749 16.2993H24.5802C23.8912 16.295 23.2254 16.0501 22.6979 15.6069C22.2413 15.2301 21.5657 15.2948 21.189 15.7514C21.1627 15.7833 21.1383 15.8167 21.1158 15.8512C20.7485 16.4337 20.1917 16.8717 19.539 17.0914L16.7231 18.024C15.9992 18.2678 15.2095 18.2264 14.515 17.9082C13.9748 17.6661 13.3406 17.9078 13.0985 18.4479C13.0433 18.5712 13.0118 18.7037 13.0058 18.8386C12.9829 19.5366 12.6937 20.1994 12.1976 20.6909L10.0795 22.7982C9.72765 23.1439 9.28992 23.3897 8.81145 23.51C8.23905 23.6611 7.89765 24.2477 8.04892 24.8201C8.07907 24.934 8.12771 25.0423 8.19296 25.1403C8.51319 25.6183 8.68443 26.1805 8.68496 26.7557V29.4354C8.68014 30.1622 8.40412 30.8609 7.91105 31.3949C7.54031 31.8035 7.54031 32.4269 7.91105 32.8355C8.40412 33.3695 8.68014 34.0682 8.68496 34.795V37.4747C8.68416 38.0503 8.51292 38.6127 8.19296 39.0911C7.86536 39.5842 7.99962 40.2496 8.49269 40.5771C8.59037 40.6419 8.69809 40.6904 8.81145 40.7204C9.28992 40.8407 9.72765 41.0865 10.0795 41.4322L12.1987 43.5406C12.6941 44.0317 12.9829 44.6936 13.0058 45.3907C13.0216 45.7448 13.2113 46.0681 13.5128 46.2547C13.8137 46.4433 14.1893 46.4686 14.5129 46.3222C15.2084 46.0011 16.0003 45.9583 16.7264 46.2021L19.5412 47.1347C20.1925 47.3551 20.7484 47.7926 21.1158 48.3738C21.4374 48.8708 22.101 49.0129 22.5981 48.6913C22.6328 48.669 22.6662 48.6445 22.6979 48.6182C23.2248 48.1734 23.8907 47.9269 24.5802 47.9215H27.2749C28.0071 47.9259 28.7118 48.2008 29.2537 48.6932C29.6609 49.0582 30.2775 49.0582 30.6847 48.6932C31.2266 48.2004 31.9318 47.9255 32.6645 47.9215H35.3603C36.3561 47.9213 37.2857 48.4199 37.8364 49.2495C38.2028 49.7421 38.8992 49.8443 39.3917 49.4779C39.4785 49.4133 39.5554 49.3364 39.62 49.2495C40.1714 48.42 41.1013 47.9215 42.0972 47.9215H44.793C46.421 47.9215 47.7408 49.2412 47.7408 50.8692C47.7408 52.4971 46.421 53.8169 44.793 53.8169H42.0972C41.1001 53.818 40.1687 53.3193 39.6168 52.4888C39.2504 51.9963 38.554 51.8941 38.0615 52.2605C37.9747 52.3251 37.8978 52.402 37.8332 52.4888C37.2825 53.3185 36.3529 53.817 35.3571 53.8169H32.6645C31.9317 53.8126 31.2265 53.5373 30.6847 53.0441C30.2775 52.6791 29.6609 52.6791 29.2537 53.0441C28.7118 53.5365 28.0071 53.8114 27.2749 53.8158H24.5802C23.5928 53.8169 22.6693 53.3283 22.1148 52.5113C21.944 52.2605 21.6748 52.0937 21.3741 52.0526C21.0735 52.0083 20.7685 52.0966 20.538 52.2948C19.7258 52.9788 18.6169 53.1927 17.6085 52.8597L14.7937 51.9272C13.6016 51.5224 12.783 50.4239 12.7357 49.1659C12.712 48.5744 12.2133 48.1141 11.6217 48.1378C11.4745 48.1437 11.3301 48.1799 11.1975 48.2441C10.0184 48.8292 8.5909 48.5142 7.76741 47.4873L5.88301 45.1506C5.13335 44.2317 5.05644 42.9359 5.69221 41.9349C6.00414 41.4318 5.84925 40.7711 5.34612 40.459C5.24805 40.3982 5.14086 40.3537 5.02871 40.327C3.73372 40.03 2.79982 38.8999 2.75199 37.5722C2.74341 37.0674 2.74341 36.5775 2.74341 36.1305V34.7907C2.74824 34.0639 3.02425 33.3652 3.51733 32.8312C3.88807 32.4226 3.88807 31.7993 3.51733 31.3906C3.02425 30.8567 2.74824 30.1579 2.74341 29.4312V26.7514C2.74663 25.3829 3.69432 24.1977 5.02871 23.8937C5.60472 23.7571 5.96086 23.1793 5.82419 22.6033C5.79753 22.491 5.75304 22.3838 5.69221 22.2859C5.05752 21.2847 5.13389 19.9899 5.88194 19.0702L7.7642 16.7291C8.58702 15.701 10.0153 15.386 11.1943 15.9724C11.7272 16.2303 12.3681 16.0076 12.6262 15.4747C12.6904 15.3421 12.7266 15.1978 12.7325 15.0505C12.7803 13.7917 13.5998 12.693 14.7927 12.2882L17.6085 11.3557C18.6164 11.0284 19.7218 11.2421 20.5348 11.9217C20.765 12.1202 21.0702 12.2088 21.3709 12.1639C21.6716 12.1228 21.9408 11.956 22.1116 11.7051C22.6676 10.8889 23.5926 10.4018 24.5802 10.4049H27.2749C28.0071 10.4093 28.7118 10.6843 29.2537 11.1767C29.6609 11.5417 30.2775 11.5417 30.6847 11.1767C31.2266 10.6839 31.9318 10.4089 32.6645 10.4049H35.3603C36.3561 10.4048 37.2857 10.9034 37.8364 11.733C38.2028 12.2255 38.8992 12.3278 39.3917 11.9613C39.4785 11.8967 39.5554 11.8198 39.62 11.733C40.1714 10.9035 41.1013 10.4049 42.0972 10.4049H44.793C45.1902 10.4044 45.5835 10.4834 45.9496 10.6375L46.7803 8.66093C46.1514 8.39591 45.4756 8.26004 44.793 8.26111H42.0972C40.8578 8.26031 39.6604 8.71024 38.7282 9.52703C37.7963 8.71037 36.5994 8.26044 35.3603 8.26111H32.6645C31.7107 8.26286 30.7767 8.53324 29.9697 9.04146C29.1627 8.53324 28.2287 8.26286 27.2749 8.26111H24.5802C23.2589 8.26004 21.9885 8.76973 21.0343 9.68353C19.7743 9.00903 18.2932 8.8796 16.9354 9.32551L14.1238 10.257C12.5508 10.7861 11.3265 12.0368 10.8309 13.6206C9.04767 13.3025 7.23267 13.9802 6.09418 15.3893L4.21192 17.7292C3.34381 18.8102 2.97012 20.2062 3.18182 21.5763C3.21733 21.8046 3.26958 22.03 3.33832 22.2505C1.6545 23.1194 0.597469 24.8566 0.599613 26.7514V29.4312C0.601488 30.3803 0.872411 31.3095 1.38103 32.1109C0.872411 32.9123 0.601488 33.8415 0.599613 34.7907V37.4704C0.599613 37.5079 0.606044 37.5444 0.607116 37.5776C0.568394 39.8443 0.697022 42.1107 0.991928 44.3585C3.00844 55.7307 12.8998 64.013 24.4494 64H42.4038C46.5457 63.9953 49.9024 60.6386 49.9071 56.4967V51.1372H49.8803C49.8803 51.046 49.9071 50.9614 49.9071 50.8692ZM47.7633 56.4967C47.7598 59.4551 45.3622 61.8527 42.4038 61.8562H24.4494C13.9036 61.8539 4.88682 54.269 3.07892 43.8793C2.95123 43.1542 2.87955 42.4202 2.86454 41.6841C3.01662 41.7883 3.17445 41.8838 3.33725 41.9703C3.26945 42.1907 3.21746 42.4156 3.18182 42.6434C2.96959 44.0146 3.34381 45.412 4.21299 46.4937L6.09418 48.8326C7.2324 50.2417 9.04767 50.9194 10.8309 50.6012C11.3271 52.1828 12.5505 53.4313 14.1216 53.9595L16.9322 54.891C18.2907 55.3394 19.7738 55.2104 21.0343 54.534C21.9878 55.4494 23.2584 55.9606 24.5802 55.9607H27.2749C28.2287 55.959 29.1627 55.6886 29.9697 55.1804C30.7767 55.6886 31.7107 55.959 32.6645 55.9607H35.3603C36.5994 55.9614 37.7963 55.5115 38.7282 54.6948C39.6604 55.5116 40.8578 55.9615 42.0972 55.9607H44.793C45.8597 55.9584 46.8988 55.6209 47.7633 54.996V56.4967Z" fill="#D72642"/>
<path d="M61.384 7.50331L57.0964 3.2157L53.8807 0L52.365 1.51567L54.8229 3.97354L44.5476 14.2488L44.2336 13.9347L42.0898 11.7909L40.5741 13.3066L41.9601 14.6925L24.4956 32.157C24.0771 32.5756 24.0771 33.2541 24.4956 33.6727L24.9458 34.1229L21.1459 39.8233C20.8624 40.2484 20.9185 40.8147 21.2799 41.176L23.4237 43.3198C23.7851 43.6812 24.3513 43.7373 24.7764 43.4538L30.4768 39.6539L30.927 40.1041C31.3456 40.5226 32.0241 40.5226 32.4427 40.1041L49.9072 22.6396L51.2931 24.0256L52.8088 22.5099L50.665 20.3661L50.3509 20.0521L60.6262 9.77681L63.084 12.2347L64.5997 10.719L61.384 7.50331ZM24.3209 41.1824L23.4205 40.282L26.4947 35.6729L28.93 38.1082L24.3209 41.1824ZM31.6848 37.8306L31.3708 37.5165L27.0832 33.2289L26.7691 32.9149L34.9005 24.7834L39.8163 29.6992L31.6848 37.8306ZM41.3319 28.1835L36.4162 23.2678L43.4757 16.2082L43.7898 16.5223L48.0774 20.8099L48.3915 21.124L41.3319 28.1835ZM48.8353 18.5364L46.0633 15.7645L56.3386 5.48921L59.1105 8.26114L48.8353 18.5364Z" fill="#D72642"/>
</g>
<defs>
<clipPath id="clip0_3738_1085">
<rect width="64" height="64" fill="white" transform="translate(0.599609)"/>
</clipPath>
</defs>
</svg>
