<svg width="65" height="64" viewBox="0 0 65 64" fill="none" xmlns="http://www.w3.org/2000/svg">
<g opacity="0.8" clip-path="url(#clip0_3738_1052)">
<path d="M41.6797 4.86169e-06C40.3366 -0.00132847 39.0074 0.271605 37.7736 0.802138C34.3385 2.26667 30.4546 2.26667 27.0194 0.802138C21.9818 -1.3516 16.1521 0.986138 13.9984 6.02374C13.4718 7.25521 13.2002 8.58067 13.1997 9.92001C13.2045 14.0532 14.1592 18.1301 15.9901 21.8357L17.5101 26.9728C17.6454 27.4245 18.0614 27.7339 18.533 27.7333H21.733V33.0667C21.733 33.6557 22.2106 34.1333 22.7997 34.1333H25.9997V36.6155L22.917 36.2731L22.6824 38.3936L25.9997 38.7627V43.0155L22.917 42.6731L22.6824 44.7936L25.9997 45.1627V49.4155L22.917 49.0731L22.6824 51.1936L25.9997 51.5627V55.8155L22.917 55.4731L22.6824 57.5936L26.0712 57.9701C26.0712 57.9787 26.0712 57.9872 26.0712 57.9957L28.2045 63.3291C28.367 63.7359 28.7617 64.0019 29.1997 64H35.5997C36.0362 64.0001 36.4288 63.7344 36.5906 63.3291L38.1906 59.3173L41.8781 59.7269L42.1128 57.6064L38.7997 57.2373V52.9845L41.8824 53.3269L42.117 51.2064L38.7997 50.8373V46.5845L41.8824 46.9269L42.117 44.8064L38.7997 44.4373V40.1845L41.8824 40.5269L42.117 38.4064L38.7997 38.0373V34.1333H41.9997C42.5888 34.1333 43.0664 33.6557 43.0664 33.0667V27.7333H46.2664C46.7389 27.7335 47.1552 27.4227 47.2893 26.9696L48.8093 21.8325C50.6397 18.1279 51.5945 14.0521 51.5997 9.92001C51.5956 4.44307 47.1566 0.00413819 41.6797 4.86169e-06ZM34.8744 61.8667H29.9218L28.4701 58.24L35.9954 59.0763L34.8744 61.8667ZM36.6664 57.0005L28.133 56.0523V51.7995L36.6664 52.7477V57.0005ZM36.6664 50.6005L28.133 49.6523V45.3995L36.6664 46.3477V50.6005ZM36.6664 44.2005L28.133 43.2523V38.9995L36.6664 39.9477V44.2005ZM36.6664 37.8005L28.133 36.8523V34.1333H36.6664V37.8005ZM40.933 32H23.8664V27.7333H40.933V32ZM46.8584 20.9632C46.8306 21.0191 46.8078 21.0772 46.7901 21.1371L45.4696 25.6H19.3298L18.0093 21.1371C17.9916 21.0772 17.9688 21.0191 17.941 20.9632C16.2305 17.5329 15.3378 13.7531 15.333 9.92001C15.3341 5.61961 18.821 2.13414 23.1216 2.13521C24.1737 2.13547 25.2148 2.34894 26.1821 2.76267C30.1537 4.45654 34.6446 4.45654 38.6162 2.76267C42.5698 1.0708 47.1465 2.90427 48.8384 6.85787C49.2525 7.82561 49.4661 8.86734 49.4664 9.92001C49.4616 13.7531 48.5689 17.5329 46.8584 20.9632Z" fill="#D72642"/>
<path d="M21.2001 4.40747C18.9511 5.59907 17.5228 7.91414 17.4668 10.4587V11.7333H19.6001V10.4533C19.6636 8.67414 20.6835 7.068 22.2668 6.25387L21.2001 4.40747Z" fill="#D72642"/>
</g>
<defs>
<clipPath id="clip0_3738_1052">
<rect width="64" height="64" fill="white" transform="translate(0.399902)"/>
</clipPath>
</defs>
</svg>
