<svg width="65" height="64" viewBox="0 0 65 64" fill="none" xmlns="http://www.w3.org/2000/svg">
<g opacity="0.8" clip-path="url(#clip0_3738_1136)">
<path d="M41.1176 4.3681C35.2372 4.3681 30.4702 9.13506 30.4702 15.0155C30.4702 20.8959 35.2372 25.6628 41.1176 25.6628C46.998 25.6628 51.765 20.8959 51.765 15.0155C51.7584 9.13786 46.9952 4.37462 41.1176 4.3681ZM41.1176 23.5334C36.4133 23.5334 32.5997 19.7197 32.5997 15.0155C32.5997 10.3112 36.4133 6.49758 41.1176 6.49758C45.8219 6.49758 49.6355 10.3112 49.6355 15.0155C49.6302 19.7176 45.8197 23.5282 41.1176 23.5334Z" fill="#D72642"/>
<path d="M64.23 32.3632L54.1309 22.2642C58.1637 15.0534 55.5874 5.93856 48.3766 1.90587C41.1656 -2.12695 32.0508 0.449446 28.0181 7.66024C23.9854 14.871 26.5617 23.9858 33.7725 28.0185C38.7886 30.8239 44.9683 30.5075 49.6718 27.2045L59.5302 37.0629C59.946 37.4786 60.62 37.4786 61.0357 37.0629L64.23 33.8687C64.6456 33.453 64.6456 32.779 64.23 32.3632ZM41.1177 27.7923C34.0644 27.7847 28.3485 22.0688 28.3409 15.0154C28.3409 7.95903 34.0613 2.2386 41.1177 2.2386C48.1741 2.2386 53.8946 7.95903 53.8946 15.0154C53.8946 22.0718 48.1741 27.7923 41.1177 27.7923ZM60.283 34.8046L51.3264 25.8481C51.9067 25.2997 52.4425 24.7063 52.9288 24.0732L61.9716 33.116L60.283 34.8046Z" fill="#D72642"/>
<path d="M48.5443 29.8973C47.741 32.8663 46.5044 35.7006 44.8741 38.3087L44.4738 38.9475C44.4109 39.0487 44.3652 39.1594 44.3385 39.2755L39.7016 59.6695C39.3584 61.1871 37.8498 62.139 36.3321 61.7957C35.2151 61.5431 34.3622 60.6394 34.1746 59.5097L30.9804 40.3509C30.5406 37.7171 28.049 35.9383 25.4151 36.3782C23.3784 36.7183 21.7825 38.3142 21.4424 40.3509L18.2482 59.5097C17.9931 61.0447 16.5421 62.0821 15.0072 61.827C13.8775 61.6392 12.9738 60.7864 12.7212 59.6695L8.08426 39.268C8.05764 39.152 8.01185 39.0412 7.94904 38.9401L7.54869 38.3013C4.43461 33.3229 2.78453 27.5687 2.78719 21.6967C2.78786 14.4779 8.64045 8.62651 15.8591 8.62717C17.6282 8.62731 19.3787 8.98666 21.0048 9.68326C22.1723 10.1838 23.406 10.5134 24.6675 10.6618L24.9156 8.54719C23.8582 8.42288 22.8243 8.14631 21.846 7.72627C14.1309 4.41854 5.19523 7.99139 1.88749 15.7065C1.07603 17.5993 0.657584 19.6372 0.657717 21.6967C0.655454 27.9675 2.41773 34.1123 5.7429 39.4288L6.04742 39.9165L10.6449 60.1465C11.2493 62.8108 13.8992 64.4807 16.5636 63.8764C18.5233 63.4318 20.0194 61.8458 20.349 59.8632L23.5432 40.7044C23.7903 39.2301 25.1858 38.2355 26.6601 38.4827C27.7987 38.6736 28.6908 39.5658 28.8818 40.7044L32.076 59.8632C32.524 62.5582 35.0719 64.3799 37.7669 63.9319C39.7493 63.6023 41.3353 62.1062 41.78 60.1465L46.3775 39.9165L46.682 39.4288C48.421 36.6455 49.7412 33.6216 50.6003 30.4541L48.5443 29.8973Z" fill="#D72642"/>
<path d="M12.3699 13.9507L12.1569 12.9073C10.0274 13.3342 5.98145 15.6596 5.98145 21.4039H8.11092C8.11092 16.0057 12.4018 15.0325 12.5828 14.9931L12.3699 13.9507Z" fill="#D72642"/>
<path d="M16.6285 12.886H14.499V15.0155H16.6285V12.886Z" fill="#D72642"/>
<path d="M41.4281 8.9354L35.5723 14.7913L37.078 16.297L42.9339 10.4411L41.4281 8.9354Z" fill="#D72642"/>
<path d="M45.6881 12.1343L38.2354 19.587L39.7411 21.0927L47.1938 13.64L45.6881 12.1343Z" fill="#D72642"/>
</g>
<defs>
<clipPath id="clip0_3738_1136">
<rect width="64" height="64" fill="white" transform="translate(0.599609)"/>
</clipPath>
</defs>
</svg>
