<svg width="64" height="64" viewBox="0 0 64 64" fill="none" xmlns="http://www.w3.org/2000/svg">
<g opacity="0.8" clip-path="url(#clip0_3738_1127)">
<path d="M58.6667 0H10.6667C5.3772 0.00906667 0.8924 3.8908 0.1248 9.12427C0.0458667 9.27067 0.00306667 9.43373 0 9.6V38.4C0 38.9891 0.4776 39.4667 1.06667 39.4667H52.2667C52.8557 39.4667 53.3333 38.9891 53.3333 38.4V32.8747L59.712 31.5947C62.2011 31.0916 63.9931 28.9073 64 26.368V5.33333C63.9965 2.38933 61.6107 0.00346667 58.6667 0ZM8.53333 37.3333H2.13333V32C2.13333 30.2327 3.566 28.8 5.33333 28.8C7.10067 28.8 8.53333 30.2327 8.53333 32V37.3333ZM17.0667 37.3333H10.6667V32C10.6667 30.2327 12.0993 28.8 13.8667 28.8C15.634 28.8 17.0667 30.2327 17.0667 32V37.3333ZM25.6 37.3333H19.2V32C19.2 30.2327 20.6327 28.8 22.4 28.8C24.1673 28.8 25.6 30.2327 25.6 32V37.3333ZM34.1333 37.3333H27.7333V32C27.7333 30.2327 29.166 28.8 30.9333 28.8C32.7007 28.8 34.1333 30.2327 34.1333 32V37.3333ZM42.6667 37.3333H36.2667V32C36.2667 30.2327 37.6993 28.8 39.4667 28.8C41.234 28.8 42.6667 30.2327 42.6667 32V37.3333ZM51.2 37.3333H44.8V32C44.8 30.2327 46.2327 28.8 48 28.8C49.7673 28.8 51.2 30.2327 51.2 32V37.3333ZM61.8667 26.3691C61.8627 27.8932 60.7876 29.2044 59.2939 29.5072L53.1648 30.7328C52.4817 27.8852 49.6196 26.1303 46.772 26.8133C45.5521 27.1059 44.4755 27.8216 43.7333 28.8331C42.0116 26.4767 38.7056 25.9621 36.3491 27.684C35.9091 28.0055 35.5215 28.3931 35.2 28.8331C33.4783 26.4767 30.1723 25.9621 27.8157 27.684C27.3757 28.0055 26.9881 28.3931 26.6667 28.8331C24.9449 26.4767 21.6389 25.9621 19.2824 27.684C18.8424 28.0055 18.4548 28.3931 18.1333 28.8331C16.4116 26.4767 13.1056 25.9621 10.7491 27.684C10.3091 28.0055 9.92147 28.3931 9.6 28.8331C7.8892 26.4847 4.59853 25.9679 2.25013 27.6788C2.2108 27.7075 2.17187 27.7367 2.13333 27.7664V17.0603C2.176 17.1157 2.22613 17.1669 2.2688 17.2213C2.4192 17.4123 2.57707 17.6 2.7392 17.7781C2.82987 17.8795 2.91947 17.9819 3.0144 18.08C3.2064 18.2795 3.41013 18.4672 3.61813 18.6517C3.6928 18.7179 3.7632 18.7883 3.83893 18.8523C4.128 19.094 4.4296 19.3205 4.7424 19.5307C4.81067 19.5765 4.88427 19.6149 4.95573 19.6587C5.20533 19.8176 5.4592 19.9701 5.7216 20.1088C5.84 20.1707 5.96267 20.2251 6.0832 20.2827C6.30827 20.3893 6.5344 20.496 6.76693 20.5845C6.90347 20.6379 7.04107 20.6912 7.17973 20.7349C7.4112 20.816 7.6448 20.8875 7.88373 20.9483C8.02347 20.9867 8.1632 21.0251 8.3104 21.0549C8.5696 21.1136 8.83307 21.1616 9.09867 21.1989C9.22347 21.2171 9.3472 21.2416 9.47413 21.2565C9.87 21.304 10.268 21.3296 10.6667 21.3333H61.8667V26.3691ZM61.8667 12.8H10.6667C9.4884 12.8 8.53333 11.8449 8.53333 10.6667C8.53333 9.4884 9.4884 8.53333 10.6667 8.53333H61.8667V12.8ZM61.8667 6.4H10.6667C8.31027 6.4 6.4 8.31027 6.4 10.6667C6.4 13.0231 8.31027 14.9333 10.6667 14.9333H61.8667V19.2H10.6667C5.95387 19.2 2.13333 15.3795 2.13333 10.6667C2.13333 5.95387 5.95387 2.13333 10.6667 2.13333H58.6667C60.434 2.13333 61.8667 3.566 61.8667 5.33333V6.4Z" fill="#D72642"/>
<path d="M59.712 51.6043L53.3333 50.3253V44.8C53.3333 44.2109 52.8557 43.7333 52.2667 43.7333H1.06667C0.4776 43.7333 0 44.2109 0 44.8V58.6667C0.00346667 61.6107 2.38933 63.9965 5.33333 64H62.9333C63.5224 64 64 63.5224 64 62.9333V56.8309C63.9931 54.2916 62.2011 52.1073 59.712 51.6043ZM44.8 45.8667H51.2V51.2C51.2 52.9673 49.7673 54.4 48 54.4C46.2327 54.4 44.8 52.9673 44.8 51.2V45.8667ZM36.2667 45.8667H42.6667V51.2C42.6667 52.9673 41.234 54.4 39.4667 54.4C37.6993 54.4 36.2667 52.9673 36.2667 51.2V45.8667ZM27.7333 45.8667H34.1333V51.2C34.1333 52.9673 32.7007 54.4 30.9333 54.4C29.166 54.4 27.7333 52.9673 27.7333 51.2V45.8667ZM19.2 45.8667H25.6V51.2C25.6 52.9673 24.1673 54.4 22.4 54.4C20.6327 54.4 19.2 52.9673 19.2 51.2V45.8667ZM10.6667 45.8667H17.0667V51.2C17.0667 52.9673 15.634 54.4 13.8667 54.4C12.0993 54.4 10.6667 52.9673 10.6667 51.2V45.8667ZM2.13333 45.8667H8.53333V51.2C8.53333 52.9673 7.10067 54.4 5.33333 54.4C3.566 54.4 2.13333 52.9673 2.13333 51.2V45.8667ZM61.8667 61.8667H5.33333C3.566 61.8667 2.13333 60.434 2.13333 58.6667V55.4389C4.43333 57.2143 7.73693 56.7891 9.5124 54.4891C9.54213 54.4505 9.57133 54.4116 9.6 54.3723C11.3217 56.7287 14.6277 57.2432 16.9843 55.5213C17.4243 55.1999 17.8119 54.8123 18.1333 54.3723C19.8551 56.7287 23.1611 57.2432 25.5176 55.5213C25.9576 55.1999 26.3452 54.8123 26.6667 54.3723C28.3884 56.7287 31.6944 57.2432 34.0509 55.5213C34.4909 55.1999 34.8785 54.8123 35.2 54.3723C36.9217 56.7287 40.2277 57.2432 42.5843 55.5213C43.0243 55.1999 43.4119 54.8123 43.7333 54.3723C45.4656 56.7335 48.7839 57.2433 51.1451 55.5112C52.1565 54.7692 52.8721 53.6925 53.1648 52.4727V52.4673L59.2939 53.6929C60.7876 53.9957 61.8627 55.3069 61.8667 56.8311V61.8667Z" fill="#D72642"/>
</g>
<defs>
<clipPath id="clip0_3738_1127">
<rect width="64" height="64" fill="white"/>
</clipPath>
</defs>
</svg>
