<svg width="65" height="64" viewBox="0 0 65 64" fill="none" xmlns="http://www.w3.org/2000/svg">
<g opacity="0.8" clip-path="url(#clip0_3738_1048)">
<path d="M26.4935 10.7198C26.6948 10.2015 27.2818 9.94265 27.7972 10.1448C30.6361 11.2439 33.7621 11.2439 36.6019 10.1448C37.1191 9.94265 37.7044 10.2014 37.9059 10.7198C38.1071 11.239 37.8498 11.8233 37.3304 12.0245C35.6763 12.6651 33.9386 12.9855 32.2003 12.9855C30.4618 12.9855 28.7236 12.6651 27.0694 12.0245C26.5498 11.8233 26.2922 11.239 26.4935 10.7198ZM63.4492 40.5123V53.1875C63.4492 56.3845 60.8486 58.9854 57.6513 58.9854H6.74807C3.55107 58.9854 0.950195 56.3845 0.950195 53.1875V40.5123C0.950195 39.9556 1.40132 39.5043 1.9587 39.5043H6.09682C7.25895 39.5043 7.84882 38.401 8.00007 37.4554L8.97207 31.3755C9.57995 27.5176 10.1549 23.8743 12.5737 23.2108C13.7366 22.8919 15.0443 23.3729 16.5901 24.7049C14.4357 20.472 14.0289 15.6583 15.4238 10.7271C15.4312 10.6998 15.4407 10.672 15.4507 10.6454C16.8602 6.90852 19.1322 5.01477 22.2031 5.01477C24.1784 5.01477 26.3891 5.80215 28.9585 7.42352C31.0217 8.1984 33.3778 8.1984 35.4416 7.42352C38.0107 5.80215 40.2212 5.01477 42.1964 5.01477C45.2672 5.01477 47.5392 6.90852 48.9488 10.6454C48.9591 10.672 48.968 10.6999 48.9761 10.7271C50.3687 15.6524 49.9652 20.4589 47.8188 24.6883C49.3591 23.3555 50.6462 22.8909 51.8221 23.2095C54.244 23.8704 54.8192 27.5156 55.4277 31.3755L56.3996 37.4554C56.5507 38.4009 57.1405 39.5043 58.3027 39.5043H62.4416C62.9981 39.5041 63.4492 39.9556 63.4492 40.5123ZM18.7573 24.4824L18.8764 24.6891C19.4028 25.6041 19.6674 26.1438 19.4443 27.4953C18.2832 34.5378 20.3129 39.8114 25.6484 43.6075V34.5059C25.6484 30.8931 28.5874 27.9544 32.2001 27.9544C35.8121 27.9544 38.7509 30.8931 38.7509 34.5059V43.6075C44.0854 39.8143 46.1167 34.5409 44.9546 27.4953C44.7322 26.1436 44.9968 25.6034 45.5231 24.6891L45.6418 24.4824C47.8771 20.5571 48.3631 16.0058 47.0478 11.3166C45.9502 8.43264 44.3627 7.03052 42.1964 7.03052C40.6161 7.03052 38.6782 7.75315 36.436 9.1799C36.3797 9.21477 36.3211 9.24527 36.2591 9.26877C33.6757 10.2698 30.7236 10.2698 28.1404 9.26877C28.0783 9.24527 28.0197 9.21477 27.9633 9.1799C25.7218 7.75315 23.7836 7.03052 22.2031 7.03052C20.0373 7.03052 18.4497 8.43264 17.3519 11.3166C16.0362 16.0059 16.5224 20.5571 18.7573 24.4824ZM61.4333 41.5198H58.3027C56.3321 41.5198 54.7677 40.0149 54.4092 37.7741L53.4365 31.6891C53.046 29.2138 52.4557 25.4729 51.2915 25.1553C50.9993 25.0764 49.8407 25.0876 47.1047 28.3369C47.9798 35.6411 45.498 41.3806 39.7036 45.4023C39.382 45.6228 39.0133 45.7378 38.6332 45.7378C38.1301 45.7378 37.6377 45.5324 37.2816 45.1748C36.9263 44.8166 36.7321 44.341 36.735 43.8333V34.5061C36.735 32.0054 34.7006 29.9705 32.2002 29.9705C29.6988 29.9705 27.6646 32.0054 27.6646 34.5061V43.8386C27.6674 44.3401 27.4733 44.8166 27.1179 45.1748C26.4923 45.8034 25.4379 45.9114 24.7007 45.4058C18.9016 41.3794 16.4196 35.6399 17.2948 28.3356C14.5571 25.0813 13.4016 25.0751 13.1073 25.1553C11.9439 25.4739 11.3539 29.2151 10.9641 31.6904L9.9907 37.7741C9.63207 40.0149 8.06732 41.5198 6.0972 41.5198H2.9662V53.1875C2.9662 55.2733 4.66282 56.969 6.74807 56.969H57.6515C59.737 56.969 61.4335 55.2733 61.4335 53.1875V41.5198H61.4333ZM52.2765 21.6225C52.3636 21.6461 52.4515 21.656 52.538 21.656C52.983 21.656 53.3898 21.3599 53.5108 20.9099L53.98 19.1604C54.1241 18.6233 53.8055 18.0705 53.2673 17.9258C52.7317 17.7823 52.1774 18.1013 52.033 18.6386L51.5637 20.3881C51.4194 20.925 51.7383 21.478 52.2765 21.6225ZM53.9472 22.6068C54.1445 22.8121 54.4082 22.9146 54.6725 22.9146C54.9243 22.9146 55.1766 22.8216 55.3725 22.6316L56.6753 21.3743C57.0761 20.9878 57.0872 20.3499 56.7 19.9488C56.3142 19.5481 55.6753 19.5369 55.2753 19.9244L53.9725 21.1818C53.5717 21.5681 53.56 22.2058 53.9472 22.6068ZM54.8721 24.3108C54.9792 24.7769 55.3941 25.093 55.853 25.093C55.9285 25.093 56.0043 25.0845 56.0806 25.0669L57.845 24.6599C58.3872 24.5349 58.7258 23.9931 58.6006 23.4506C58.4753 22.9069 57.9318 22.572 57.3918 22.695L55.6277 23.1023C55.085 23.2273 54.7465 23.7685 54.8721 24.3108ZM10.8888 20.9099C11.0099 21.3599 11.4171 21.656 11.8621 21.656C11.9481 21.656 12.0362 21.6463 12.1233 21.6225C12.6613 21.478 12.9802 20.925 12.8359 20.3881L12.3672 18.6386C12.2227 18.1013 11.6704 17.7821 11.1323 17.9258C10.5944 18.0705 10.2756 18.6233 10.4194 19.1604L10.8888 20.9099ZM9.02807 22.6324C9.22357 22.8216 9.47582 22.9146 9.72782 22.9146C9.9922 22.9146 10.2557 22.8121 10.4534 22.6068C10.8401 22.2059 10.8283 21.5681 10.4281 21.1818L9.12457 19.9239C8.72482 19.5379 8.0862 19.5481 7.69907 19.9488C7.31232 20.3499 7.32432 20.9879 7.7252 21.3743L9.02807 22.6324ZM6.55495 24.6599L8.31932 25.0669C8.3957 25.0845 8.4717 25.093 8.54695 25.093C9.00632 25.093 9.42057 24.7769 9.52857 24.3108C9.65357 23.7685 9.3152 23.2273 8.77307 23.1023L7.00807 22.695C6.4672 22.5726 5.92457 22.9081 5.79932 23.4506C5.67357 23.9931 6.01245 24.5349 6.55495 24.6599Z" fill="#D72642"/>
</g>
<defs>
<clipPath id="clip0_3738_1048">
<rect width="64" height="64" fill="white" transform="translate(0.199707)"/>
</clipPath>
</defs>
</svg>
