<svg width="65" height="64" viewBox="0 0 65 64" fill="none" xmlns="http://www.w3.org/2000/svg">
<g opacity="0.8" clip-path="url(#clip0_3738_1076)">
<path d="M63.8428 35.601L52.5468 32.3984C51.4045 32.0776 50.1893 32.1349 49.0823 32.5617L49.7185 31.0898L51.9582 28.7377C54.8101 25.735 56.9277 22.1125 58.1449 18.1544C59.7385 12.9459 56.8082 7.43183 51.5998 5.83809C50.326 5.44838 48.9867 5.32072 47.6623 5.46282C43.9707 5.85267 40.2798 4.72156 37.4406 2.33024C33.2807 -1.18571 27.058 -0.663831 23.5421 3.49621C22.6821 4.51371 22.037 5.69506 21.6461 6.96867C20.4372 10.9297 20.1624 15.1171 20.8434 19.2021L21.381 22.4057L19.0862 34.5575C17.7426 32.6234 15.3189 31.756 13.0533 32.3984L1.75728 35.601C1.30115 35.7305 0.986328 36.147 0.986328 36.6212V62.9396C0.986328 63.5252 1.46115 64 2.04678 64H63.5533C64.1389 64 64.6137 63.5252 64.6137 62.9396V36.6212C64.6137 36.147 64.2989 35.7305 63.8428 35.601ZM20.4372 38.8301L23.4998 22.6136C23.5216 22.4904 23.5216 22.3645 23.4998 22.2414L22.9304 18.8479C22.3048 15.0873 22.5589 11.2329 23.6727 7.58692C24.9281 3.50005 29.259 1.20469 33.346 2.46014C34.3448 2.76701 35.2713 3.27285 36.0694 3.94743C39.3521 6.71443 43.6209 8.02343 47.8903 7.57207C52.1413 7.11581 55.9573 10.1921 56.4136 14.443C56.5252 15.4823 56.4251 16.5335 56.1195 17.5329C54.9978 21.1761 53.048 24.5103 50.4227 27.2743L48.0526 29.7632C47.966 29.8533 47.8964 29.9582 47.8468 30.0728L41.2985 45.2215C40.8689 46.2142 39.7158 46.6707 38.7229 46.241C37.9089 45.8886 37.4332 45.0331 37.5636 44.1557L39.8807 28.6624C40.2158 26.3376 38.8133 24.1136 36.571 23.4142C36.1261 23.2773 35.6631 23.208 35.1977 23.2085C33.3639 23.2097 31.6917 24.2576 30.8912 25.9074L24.1287 40.039C23.6618 41.0148 22.4923 41.4273 21.5165 40.9604C20.7153 40.5771 20.2723 39.7027 20.4372 38.8301ZM36.6813 35.7155C34.0738 36.5895 31.2349 36.4674 28.712 35.373L32.8 26.8225C33.4234 25.508 34.9944 24.9478 36.3088 25.5712C37.3599 26.0696 37.9595 27.1986 37.7842 28.3485V28.3432L36.6813 35.7155ZM20.0745 42.5534C21.8967 43.8312 24.4098 43.3899 25.6875 41.5677C25.8234 41.374 25.9419 41.1687 26.0417 40.9542L27.7989 37.2765C30.4774 38.4885 33.4892 38.7503 36.3366 38.0188L35.466 43.8376C35.1329 46.0658 36.6694 48.1424 38.8976 48.4755C40.7271 48.7489 42.5115 47.7573 43.2455 46.0592L45.5255 40.7898V54.335C45.5036 56.1968 43.9766 57.6882 42.1148 57.6663C40.7595 57.6504 39.5456 56.8243 39.0334 55.5694L36.6919 49.7592C35.8175 47.6097 33.3663 46.5761 31.2169 47.4504C30.1674 47.8772 29.335 48.7098 28.9081 49.7592L26.5667 55.5705C25.8629 57.2942 23.8951 58.1211 22.1713 57.4175C20.9161 56.9052 20.0901 55.6907 20.0745 54.335V42.5534ZM62.4928 61.8791H3.10724V37.4229L13.6323 34.4377C15.197 33.9907 16.8591 34.7149 17.5973 36.1652C17.8309 36.6302 17.9528 37.1432 17.9536 37.6636V54.335C17.9743 57.3682 20.4499 59.8102 23.4831 59.7895C25.7044 59.7742 27.6976 58.4227 28.5338 56.3647L30.8753 50.5545C31.3117 49.4915 32.5272 48.9836 33.5902 49.4199C34.1049 49.6312 34.5135 50.0398 34.7247 50.5545L37.0662 56.3647C38.2079 59.1748 41.4116 60.5274 44.2217 59.3857C46.2796 58.5497 47.6313 56.5563 47.6464 54.335V37.6636C47.6472 37.1432 47.7692 36.6302 48.0027 36.1652C48.7409 34.7149 50.4031 33.9907 51.9678 34.4377L62.4928 37.4229V61.8791Z" fill="#D72642"/>
<path d="M30.4777 5.09589C27.848 5.8797 25.7856 7.9285 24.9845 10.553L24.5508 11.9666L26.5784 12.588L27.0121 11.1744C27.6061 9.22822 29.1353 7.70898 31.0853 7.12772L30.4777 5.09589Z" fill="#D72642"/>
</g>
<defs>
<clipPath id="clip0_3738_1076">
<rect width="64" height="64" fill="white" transform="translate(0.799805)"/>
</clipPath>
</defs>
</svg>
