<svg width="65" height="64" viewBox="0 0 65 64" fill="none" xmlns="http://www.w3.org/2000/svg">
<g opacity="0.8" clip-path="url(#clip0_3738_1115)">
<path d="M63.3039 0.0150146H1.46607C0.87728 0.0150146 0.399902 0.492392 0.399902 1.08118V20.2722C0.399902 20.861 0.87728 21.3384 1.46607 21.3384H34.5173V19.2061H33.4511V11.7429C33.4511 9.97637 34.8831 8.54437 36.6497 8.54437H38.782C40.5485 8.54437 41.9805 9.97637 41.9805 11.7429V14.9414H44.1128V11.7429C44.1128 9.97637 45.5448 8.54437 47.3113 8.54437H49.4437C51.2102 8.54437 52.6422 9.97637 52.6422 11.7429V19.2061H51.576V21.3384H63.3039C63.8927 21.3384 64.3701 20.861 64.3701 20.2722V1.08118C64.3701 0.492392 63.8927 0.0150146 63.3039 0.0150146ZM9.99542 19.2061H2.53224V11.2098C2.53224 9.73768 3.72555 8.54437 5.19766 8.54437H7.33C8.80211 8.54437 9.99542 9.73768 9.99542 11.2098V19.2061ZM20.6571 19.2061H12.1278V11.7429C12.1278 9.97637 13.5598 8.54437 15.3263 8.54437H17.4586C19.2251 8.54437 20.6571 9.97637 20.6571 11.7429V19.2061ZM31.3188 19.2061H22.7895V11.7429C22.7895 9.97637 24.2215 8.54437 25.988 8.54437H28.1203C29.8868 8.54437 31.3188 9.97637 31.3188 11.7429V19.2061ZM62.2377 19.2061H54.7745V11.2098C54.7745 9.73768 55.9678 8.54437 57.44 8.54437H59.5723C61.0444 8.54437 62.2377 9.73768 62.2377 11.2098V19.2061ZM62.2377 7.22445C61.4499 6.69443 60.5218 6.4115 59.5723 6.41203H57.44C55.9035 6.41563 54.4621 7.15688 53.5655 8.4047C52.5644 7.15035 51.0485 6.41749 49.4437 6.41203H47.3113C45.6268 6.41669 44.0445 7.22019 43.0467 8.57742C42.0489 7.22019 40.4665 6.41669 38.782 6.41203H36.6497C34.9651 6.41669 33.3828 7.22019 32.385 8.57742C31.3872 7.22019 29.8048 6.41669 28.1203 6.41203H25.988C24.3034 6.41669 22.7211 7.22019 21.7233 8.57742C20.7255 7.22019 19.1432 6.41669 17.4586 6.41203H15.3263C13.7214 6.41749 12.2056 7.15035 11.2045 8.4047C10.3078 7.15688 8.86648 6.41563 7.33 6.41203H5.19766C4.24811 6.4115 3.32001 6.69443 2.53224 7.22445V2.14735H62.2377V7.22445Z" fill="#D72642"/>
<path d="M2.53224 61.8527V56.7756C3.32001 57.3056 4.24811 57.5886 5.19766 57.588H7.33C8.86648 57.5845 10.3078 56.8432 11.2045 55.5954C12.2056 56.8497 13.7214 57.5826 15.3263 57.588H17.4586C19.1432 57.5834 20.7255 56.7799 21.7233 55.4227C22.7211 56.7799 24.3034 57.5834 25.988 57.588H28.1203C29.8048 57.5834 31.3872 56.7799 32.385 55.4227C33.3828 56.7799 34.9651 57.5834 36.6497 57.588H38.782C40.4665 57.5834 42.0489 56.7799 43.0467 55.4227C44.0445 56.7799 45.6268 57.5834 47.3113 57.588H49.4437C50.3795 57.5884 51.299 57.3422 52.1091 56.8737L51.0429 55.0292C50.5564 55.309 50.0049 55.456 49.4437 55.4557H47.3113C45.5448 55.4557 44.1128 54.0237 44.1128 52.2572V44.794H46.2452V42.6617H1.46607C0.87728 42.6617 0.399902 43.1391 0.399902 43.7279V62.9189C0.399902 63.5077 0.87728 63.9851 1.46607 63.9851H53.7084V61.8527H2.53224ZM33.4511 44.794H41.9805V52.2572C41.9805 54.0237 40.5485 55.4557 38.782 55.4557H36.6497C34.8831 55.4557 33.4511 54.0237 33.4511 52.2572V44.794ZM22.7895 44.794H31.3188V52.2572C31.3188 54.0237 29.8868 55.4557 28.1203 55.4557H25.988C24.2215 55.4557 22.7895 54.0237 22.7895 52.2572V44.794ZM12.1278 44.794H20.6571V52.2572C20.6571 54.0237 19.2251 55.4557 17.4586 55.4557H15.3263C13.5598 55.4557 12.1278 54.0237 12.1278 52.2572V44.794ZM2.53224 44.794H9.99542V52.7903C9.99542 54.2624 8.80211 55.4557 7.33 55.4557H5.19766C3.72555 55.4557 2.53224 54.2624 2.53224 52.7903V44.794Z" fill="#D72642"/>
<path d="M48.3773 27.7353H44.7715L43.7053 25.603H50.967L62.5637 45.2471L64.3997 44.1628L52.4938 23.9952C52.3021 23.6703 51.9531 23.4708 51.5758 23.4706H49.4434V22.4045C49.44 19.4618 47.0552 17.0771 44.1126 17.0736H41.9803C39.0376 17.0771 36.6529 19.4618 36.6494 22.4045V33.0661C36.6494 33.6549 37.1268 34.1323 37.7156 34.1323H44.4762L56.993 63.339L58.9526 62.4988L46.7951 34.1323H48.3773C48.8981 34.1285 49.3375 33.7438 49.4104 33.2282L62.262 58.7779L64.1683 57.8183L49.3304 28.3228C49.1493 27.9624 48.7806 27.7352 48.3773 27.7353ZM47.3111 32H38.7818V22.4045C38.7818 20.6379 40.2138 19.2059 41.9803 19.2059H44.1126C45.8791 19.2059 47.3111 20.6379 47.3111 22.4045V23.4706H41.9803C41.3915 23.4674 40.9116 23.9421 40.9082 24.5309C40.9073 24.6983 40.9458 24.8636 41.0207 25.0134L43.153 29.278C43.3346 29.6412 43.7065 29.8699 44.1126 29.8676H47.3111V32Z" fill="#D72642"/>
</g>
<defs>
<clipPath id="clip0_3738_1115">
<rect width="64" height="64" fill="white" transform="translate(0.399902)"/>
</clipPath>
</defs>
</svg>
