<svg width="64" height="64" viewBox="0 0 64 64" fill="none" xmlns="http://www.w3.org/2000/svg">
<g opacity="0.8" clip-path="url(#clip0_3738_1061)">
<path d="M13.2748 17.2458C10.9769 18.7744 9.5973 21.3522 9.6001 24.112V25.6H11.7334V24.112C11.7312 22.0654 12.7545 20.1539 14.4588 19.0208L13.2748 17.2458Z" fill="#D72642"/>
<path d="M43.7321 32.702C42.3183 32.7023 40.9625 33.264 39.9627 34.2635L38.4629 35.7632L38.1749 36.0512C37.6683 36.5599 37.3461 37.2234 37.2597 37.936L37.1808 38.6016H37.1915L35.5147 53.6843C35.3904 54.7783 34.4028 55.5644 33.3088 55.4402C32.4259 55.3399 31.7159 54.6672 31.568 53.791L29.3109 40.32C28.8704 37.6815 26.3743 35.8995 23.7356 36.3402C21.6952 36.6808 20.0964 38.2796 19.7557 40.32L17.5072 53.8006C17.324 54.8863 16.2953 55.6179 15.2097 55.4347C14.3335 55.2868 13.6609 54.5768 13.5605 53.6939L11.7269 37.216C11.7121 37.091 11.6761 36.9694 11.6203 36.8566L10.0736 33.7632C8.364 30.3327 7.47173 26.553 7.46667 22.72C7.46747 18.4196 10.9543 14.934 15.2547 14.9347C16.3073 14.9348 17.3489 15.1486 18.3168 15.5627C21.956 17.1275 26.0516 17.2619 29.7856 15.9392L29.0752 13.9275C25.8459 15.0718 22.304 14.9575 19.1552 13.6075C14.1181 11.4526 8.28787 13.789 6.13293 18.826C5.6064 20.0568 5.3344 21.3814 5.33333 22.72C5.33933 26.3011 6.058 29.8451 7.44747 33.1456C4.7432 31.978 1.60453 33.2236 0.436933 35.9279C0.149733 36.593 0.00106667 37.3096 0 38.0342V62.9334C0 63.5224 0.4776 64 1.06667 64H48C48.5891 64 49.0667 63.5224 49.0667 62.9334V38.0342C49.066 35.0887 46.6777 32.7014 43.7321 32.702ZM46.9333 61.8667H2.13333V38.0342C2.13547 37.1859 2.4724 36.3728 3.07093 35.7718C4.33667 34.5622 6.33 34.5622 7.59573 35.7718L9.64693 37.8219L11.4379 53.9286C11.6907 56.1943 13.7324 57.8262 15.9981 57.5734C17.8319 57.3688 19.3071 55.9723 19.6117 54.1526L21.8592 40.6656C22.1068 39.1887 23.5048 38.1923 24.9817 38.4399C26.1224 38.6312 27.0161 39.525 27.2075 40.6656L29.4549 54.1504C29.8312 56.399 31.9591 57.9168 34.2076 57.5406C36.0272 57.236 37.4239 55.7611 37.6288 53.9275L39.3781 38.1942C39.4049 37.9547 39.5121 37.7314 39.6821 37.5606L41.4709 35.7718C42.7367 34.5622 44.73 34.5622 45.9957 35.7718C46.5943 36.3728 46.9312 37.1859 46.9333 38.0342V61.8667Z" fill="#D72642"/>
<path d="M48 0C39.1635 0 32 7.16347 32 16C32.01 24.8324 39.1676 31.99 48 32C56.8365 32 64 24.8365 64 16C64 7.16347 56.8365 0 48 0ZM48 29.8667C40.3416 29.8667 34.1333 23.6584 34.1333 16C34.1421 8.34533 40.3453 2.14213 48 2.13333C55.6584 2.13333 61.8667 8.3416 61.8667 16C61.8667 23.6584 55.6584 29.8667 48 29.8667Z" fill="#D72642"/>
<path d="M57.6002 11.7333H52.2668V6.39998C52.2668 5.81091 51.7892 5.33331 51.2002 5.33331H44.8002C44.2111 5.33331 43.7335 5.81091 43.7335 6.39998V11.7333H38.4002C37.8111 11.7333 37.3335 12.2109 37.3335 12.8V19.2C37.3335 19.789 37.8111 20.2666 38.4002 20.2666H43.7335V25.6C43.7335 26.189 44.2111 26.6666 44.8002 26.6666H51.2002C51.7892 26.6666 52.2668 26.189 52.2668 25.6V20.2666H57.6002C58.1892 20.2666 58.6668 19.789 58.6668 19.2V12.8C58.6668 12.2109 58.1892 11.7333 57.6002 11.7333ZM56.5335 18.1333H51.2002C50.6111 18.1333 50.1335 18.6109 50.1335 19.2V24.5333H45.8668V19.2C45.8668 18.6109 45.3892 18.1333 44.8002 18.1333H39.4668V13.8666H44.8002C45.3892 13.8666 45.8668 13.389 45.8668 12.8V7.46665H50.1335V12.8C50.1335 13.389 50.6111 13.8666 51.2002 13.8666H56.5335V18.1333Z" fill="#D72642"/>
</g>
<defs>
<clipPath id="clip0_3738_1061">
<rect width="64" height="64" fill="white"/>
</clipPath>
</defs>
</svg>
