<svg width="65" height="64" viewBox="0 0 65 64" fill="none" xmlns="http://www.w3.org/2000/svg">
<g opacity="0.8" clip-path="url(#clip0_3738_1094)">
<path d="M21.5414 20.2896C19.2435 21.8181 17.8639 24.396 17.8667 27.1557V28.6437H20V27.1557C19.9978 25.1092 21.0211 23.1976 22.7254 22.0645L21.5414 20.2896Z" fill="#D72642"/>
<path d="M62.9789 4.42292L44.533 22.8688L41.7746 20.1104L60.2205 1.66452L58.7122 0.15625L39.6904 19.1781L27.1293 23.3648C26.5704 23.5509 26.2682 24.1549 26.4544 24.7139C26.5068 24.8712 26.595 25.014 26.7122 25.1312L39.5122 37.9312C39.9292 38.3473 40.6045 38.3468 41.0208 37.9299C41.1374 37.8131 41.2253 37.6707 41.2776 37.5141L45.4653 24.9541L64.4872 5.93118L62.9789 4.42292ZM39.7992 35.2048L37.3725 32.7771L41.1538 27.1045L39.3789 25.9205L35.8333 31.2389L33.4077 28.8091L38.725 25.2645L37.541 23.4896L31.8696 27.2709L29.4418 24.8432L39.9773 21.3307L43.3117 24.6651L39.7992 35.2048Z" fill="#D72642"/>
<path d="M64.0254 38.2854L53.6787 35.3286C52.3957 34.9671 51.0345 34.9931 49.7662 35.4032C51.2337 32.0244 51.9938 28.3808 51.9998 24.6971C51.9998 24.1786 51.9598 23.6607 51.8803 23.1483L49.7715 23.479C49.8354 23.8819 49.8671 24.2892 49.8665 24.6971C49.8618 28.5315 48.9691 32.3128 47.2585 35.7446L45.7118 38.8379C45.6559 38.9507 45.6198 39.0723 45.6051 39.1974L43.7726 55.6912C43.6542 56.7723 42.6818 57.5526 41.6007 57.434C40.711 57.3366 39.999 56.6512 39.8675 55.7659L37.5305 40.183C37.137 37.5703 34.7001 35.7712 32.0874 36.1647C30.0114 36.4774 28.3817 38.107 28.0691 40.183L25.7321 55.7659C25.5723 56.8416 24.5709 57.5842 23.4951 57.4244C22.6098 57.293 21.9245 56.581 21.827 55.6912L19.9934 39.1931C19.9786 39.068 19.9426 38.9464 19.8867 38.8336L18.3401 35.7403C16.6305 32.3098 15.7382 28.53 15.7331 24.6971C15.7339 20.3967 19.2207 16.9111 23.5211 16.9118C24.5738 16.9119 25.6154 17.1256 26.5833 17.5398C30.5546 19.2336 35.045 19.2336 39.0163 17.5398L38.1769 15.5792C34.7415 17.0427 30.8581 17.0427 27.4227 15.5792C22.3859 13.4236 16.5554 15.7595 14.3998 20.7963C13.8722 22.0291 13.6001 23.3562 13.5998 24.6971C13.6074 28.3814 14.3697 32.025 15.8398 35.4032C14.5711 34.9931 13.2095 34.9671 11.9262 35.3286L1.57954 38.2854C1.1194 38.4139 0.800871 38.8327 0.799805 39.3104V62.7771C0.799805 63.3662 1.2774 63.8438 1.86647 63.8438H63.7331C64.3222 63.8438 64.7998 63.3662 64.7998 62.7771V39.3104C64.7994 38.8342 64.4834 38.4159 64.0254 38.2854ZM62.6665 61.7104H2.93314V40.1147L12.5065 37.3798C14.6149 36.7802 16.8567 37.7268 17.8974 39.656L19.7107 55.927C19.9607 58.1794 21.9894 59.8027 24.2418 59.5527C26.0914 59.3474 27.5713 57.9231 27.8473 56.0827L30.1843 40.4998C30.3994 39.053 31.7467 38.0544 33.1935 38.2695C34.3467 38.441 35.2522 39.3464 35.4238 40.4998L37.7609 56.0827C38.0969 58.3239 40.1862 59.8684 42.4274 59.5324C44.2678 59.2566 45.6921 57.7766 45.8974 55.927L47.7107 39.656C48.7517 37.7271 50.9933 36.7807 53.1017 37.3798L62.6665 40.1147V61.7104Z" fill="#D72642"/>
<path d="M55.5274 31.4171C56.0169 29.2105 56.2648 26.9572 56.2666 24.6971C56.2716 22.5816 55.7974 20.4924 54.88 18.5861L52.96 19.5077C53.7372 21.1269 54.1384 22.9009 54.1333 24.6971C54.1312 27.1291 53.8237 29.5512 53.2181 31.9067C53.148 32.1803 53.1897 32.4705 53.3344 32.7131C53.479 32.9568 53.7146 33.1329 53.9893 33.2027L64.0373 36.0688L64.6229 34.0187L55.5274 31.4171Z" fill="#D72642"/>
<path d="M36.4939 11.656C34.1328 12.663 31.4629 12.663 29.1019 11.656C21.8988 8.57322 13.5604 11.9135 10.4776 19.1166C9.72278 20.8803 9.33345 22.7787 9.33332 24.6971C9.33478 26.9591 9.58265 29.2142 10.0725 31.4224L0.977051 34.0187L1.56265 36.0688L11.3344 33.2774L11.6107 33.2027C12.1817 33.058 12.5273 32.4778 12.3827 31.9067C12.3824 31.9056 12.3821 31.9046 12.3819 31.9035C11.7765 29.5491 11.4691 27.128 11.4667 24.6971C11.472 18.0424 16.8653 12.6491 23.52 12.6438C25.1524 12.6422 26.768 12.9739 28.2677 13.6187C31.1639 14.8534 34.4383 14.8534 37.3344 13.6187C39.2305 12.8076 41.3027 12.4951 43.3536 12.711L43.5755 10.5894C41.1627 10.3368 38.7253 10.704 36.4939 11.656Z" fill="#D72642"/>
<path d="M14.6485 9.26584C14.5728 8.81824 14.2222 8.4677 13.7746 8.39197C12.0365 8.10157 10.6746 6.7393 10.3848 5.00104C10.2865 4.42024 9.73595 4.0289 9.15515 4.12717C8.70755 4.2029 8.35702 4.55344 8.28128 5.00104C7.99142 6.7393 6.62955 8.10157 4.89142 8.39197C4.31062 8.49024 3.91929 9.04077 4.01755 9.62157C4.09329 10.0692 4.44382 10.4197 4.89142 10.4954C6.62955 10.7858 7.99142 12.1481 8.28128 13.8864C8.37955 14.4672 8.93008 14.8585 9.51088 14.7602C9.95848 14.6845 10.309 14.334 10.3848 13.8864C10.6746 12.1481 12.0365 10.7858 13.7746 10.4954C14.3554 10.3972 14.7467 9.84664 14.6485 9.26584ZM9.33302 10.9669C8.91715 10.375 8.40168 9.85957 7.80982 9.4437C8.40168 9.02784 8.91715 8.51237 9.33302 7.9205C9.74888 8.51237 10.2644 9.02784 10.8562 9.4437C10.2644 9.85957 9.74888 10.375 9.33302 10.9669Z" fill="#D72642"/>
</g>
<defs>
<clipPath id="clip0_3738_1094">
<rect width="64" height="64" fill="white" transform="translate(0.799805)"/>
</clipPath>
</defs>
</svg>
