<svg width="153" height="43" viewBox="0 0 153 43" fill="none" xmlns="http://www.w3.org/2000/svg">
<path d="M152.789 10.3781C152.262 6.71393 150.999 4.09664 148.998 2.63096C147.119 1.23826 144.812 0.535427 142.47 0.641817C140.995 0.694346 139.553 1.0887 138.259 1.79343C137.299 2.31231 136.384 2.9075 135.521 3.57318C134.409 4.59723 133.171 5.4767 131.836 6.19047C131.326 6.48757 130.741 6.63292 130.151 6.60924C129.338 6.31269 128.561 5.9264 127.835 5.45764C125.807 4.11251 123.564 3.12116 121.201 2.52627C115.726 1.37466 111.936 4.09664 110.462 6.81862C108.566 10.0641 112.567 15.508 115.41 19.3816C115.916 20.0796 116.358 20.6868 116.737 21.2032C116.763 21.2414 116.779 21.2856 116.782 21.3316C116.785 21.3776 116.776 21.4236 116.756 21.465C116.736 21.5065 116.705 21.5418 116.666 21.5676C116.628 21.5933 116.583 21.6085 116.537 21.6115C114.768 21.7372 111.325 22.0303 107.061 22.313L101.48 22.627C97.6897 22.9411 94.7521 23.2552 93.4781 23.3599C93.1622 23.3599 92.6357 23.5693 92.6357 23.674C92.6357 23.7787 92.9516 23.8834 93.2675 23.8834H98.9532C106.218 23.8834 117.063 23.8834 119.801 23.7787C119.949 23.7759 120.095 23.7361 120.223 23.6629C120.352 23.5898 120.46 23.4856 120.538 23.3599C120.626 23.2182 120.672 23.0551 120.672 22.8888C120.672 22.7225 120.626 22.5594 120.538 22.4177C119.969 21.4754 119.064 20.2191 118.222 18.9628C117.063 17.1831 115.8 15.4033 114.958 14.0423C113.378 11.5297 112.009 8.59838 114.115 6.92331C115.62 5.74724 117.467 5.08624 119.38 5.03887C121.907 4.93418 125.487 6.60924 128.33 7.86554L130.751 8.91245C134.752 10.4828 136.016 9.95937 136.437 9.6453C136.542 9.6453 136.437 9.5406 136.437 9.43591C134.331 8.70307 133.7 8.28431 133.278 7.76085C138.016 3.46849 143.281 2.52627 146.966 5.35294C149.072 6.92331 149.914 10.1688 150.336 12.5767C150.507 14.246 150.577 15.9241 150.546 17.6019C150.441 19.6957 150.441 20.3238 150.967 21.3708C151.073 21.5801 151.494 22.2083 151.704 22.5224C151.718 22.5501 151.743 22.5712 151.772 22.5811C151.802 22.5909 151.834 22.5886 151.862 22.5747C151.89 22.5608 151.911 22.5365 151.921 22.507C151.931 22.4776 151.929 22.4454 151.915 22.4177C151.708 21.8467 151.602 21.2447 151.599 20.6379C151.755 19.5035 152.001 18.3832 152.336 17.2878C152.804 15.53 153.01 13.7134 152.947 11.8962C152.947 11.8962 152.894 11.0063 152.789 10.3781Z" fill="currentColor"/>
<path d="M151.673 28.1234C150.638 29.7328 150.05 31.5856 149.967 33.494C150.122 34.6579 150.376 35.8066 150.725 36.9279C151.168 38.6344 150.831 39.3358 150.304 39.8593C150.196 39.9703 150.064 40.056 149.919 40.1103C149.773 40.1646 149.617 40.1861 149.462 40.1734C148.409 40.1734 146.061 37.577 144.608 34.9388C144.166 34.1536 142.639 31.6724 142.502 31.463C141.449 29.9973 140.291 28.427 137.343 28.9504C134.184 29.5786 133.974 37.0117 133.974 38.4774C133.974 39.1055 133.868 39.943 133.342 40.0477C132.289 40.4665 129.425 38.3936 127.867 36.6976C126.208 34.5446 124.661 32.3083 123.234 29.9973C123.104 29.8092 122.932 29.6542 122.73 29.545C122.529 29.4359 122.305 29.3756 122.076 29.3692H106.808C101.86 29.3692 96.7003 29.4739 95.2262 29.4739C94.6997 29.4739 94.6997 29.5786 94.6997 29.6833C94.6997 29.788 94.8892 29.9241 95.7526 29.9973C111.336 30.8349 110.599 30.4161 120.286 31.463C121.233 31.5677 121.549 32.1959 122.286 33.1381C122.813 33.7662 123.339 34.6038 123.866 35.3366C124.448 36.2101 125.08 37.049 125.761 37.8492C127.312 39.8897 129.384 41.4802 131.762 42.4556C133.026 42.9791 134.079 43.0838 134.816 42.5603C135.135 42.365 135.392 42.0852 135.56 41.7523C135.727 41.4193 135.798 41.0466 135.763 40.6759C135.763 40.1524 135.763 39.7337 135.763 39.3149C135.751 37.7985 135.928 36.2864 136.29 34.8131C136.606 33.3475 137.448 31.6724 138.712 31.463C139.975 31.2536 141.344 32.5099 142.818 35.1272C146.924 42.1416 148.293 42.9791 150.188 42.9791C150.873 42.9464 151.517 42.6452 151.978 42.1416C152.496 41.4335 152.806 40.5962 152.873 39.7232C153.02 38.2947 152.796 36.8527 152.221 35.5355C151.536 33.9128 150.652 30.9605 151.778 28.4688C151.989 28.071 151.778 28.0187 151.673 28.1234Z" fill="currentColor"/>
<path d="M4.01183 23.1505C2.98861 22.653 2.11658 21.8943 1.48483 20.952C0.8762 19.9815 0.582152 18.8486 0.642497 17.7065C0.638437 16.1989 1.0382 14.7173 1.80071 13.4142C2.55419 12.1601 3.64933 11.1438 4.95946 10.4828C6.35466 9.75697 7.91287 9.39666 9.487 9.43588C10.7219 9.39407 11.9491 9.64529 13.0669 10.1687C14.0142 10.5983 14.818 11.2886 15.3833 12.1579L12.014 14.7751C11.7452 14.29 11.348 13.8872 10.8654 13.6104C10.3829 13.3336 9.83339 13.1933 9.27642 13.2048C8.60827 13.2026 7.95248 13.3838 7.38117 13.7282C6.79808 14.0824 6.32447 14.5895 6.01238 15.1939C5.66587 15.8755 5.48552 16.6287 5.48592 17.3924C5.46179 17.7568 5.51494 18.1222 5.6419 18.4649C5.76887 18.8075 5.96684 19.1198 6.22296 19.3816C6.5068 19.6376 6.83943 19.8344 7.20115 19.9603C7.56288 20.0862 7.94633 20.1386 8.32879 20.1144C8.92543 20.1063 9.51197 19.9602 10.042 19.6876C10.572 19.4151 11.0308 19.0235 11.3823 18.544L14.1198 21.1613C13.387 22.065 12.4487 22.7827 11.3823 23.2552C10.2409 23.6923 9.02523 23.9056 7.80234 23.8833C6.4996 23.9242 5.20425 23.6737 4.01183 23.1505Z" fill="currentColor"/>
<path d="M28.7554 13.4142H24.6491L22.6485 23.5693H18.0157L20.0162 13.4142H16.0151L16.7522 9.85469H29.4925L28.7554 13.4142Z" fill="currentColor"/>
<path d="M31.9142 23.1505C30.9011 22.6792 30.0564 21.9123 29.4925 20.952C28.9312 19.9619 28.6408 18.8429 28.6501 17.7065C28.6461 16.1989 29.0458 14.7173 29.8083 13.4142C30.5618 12.1601 31.657 11.1438 32.9671 10.4828C34.3623 9.75699 35.9205 9.39668 37.4946 9.43589C38.7634 9.39444 40.0247 9.64525 41.1798 10.1687C42.1929 10.64 43.0376 11.4069 43.6015 12.3673C44.1628 13.3573 44.4532 14.4763 44.4439 15.6127C44.4479 17.1204 44.0482 18.6019 43.2857 19.9051C42.5322 21.1591 41.437 22.1754 40.1269 22.8364C38.7317 23.5622 37.1735 23.9225 35.5994 23.8833C34.3315 23.9138 33.0727 23.6635 31.9142 23.1505ZM38.0211 19.591C38.5527 19.1657 38.984 18.6296 39.2846 18.0206C39.585 17.3641 39.7291 16.6476 39.7058 15.9268C39.7342 15.5621 39.6829 15.1956 39.5554 14.8525C39.4279 14.5095 39.2272 14.1979 38.9671 13.9392C38.707 13.6806 38.3936 13.481 38.0486 13.3543C37.7035 13.2275 37.3349 13.1765 36.9682 13.2048C36.3 13.2026 35.6442 13.3838 35.0729 13.7282C34.5413 14.1535 34.11 14.6896 33.8094 15.2986C33.509 15.9551 33.3649 16.6716 33.3882 17.3925C33.3598 17.7571 33.4111 18.1236 33.5386 18.4667C33.6661 18.8098 33.8668 19.1213 34.1269 19.38C34.387 19.6386 34.7004 19.8382 35.0454 19.965C35.3905 20.0917 35.7591 20.1427 36.1258 20.1144C36.794 20.1166 37.4498 19.9355 38.0211 19.591Z" fill="currentColor"/>
<path d="M64.1334 9.74994L61.3959 23.5692H57.1842L58.4477 17.2877L54.4466 22.3129H52.3408L50.2349 17.3924L48.9714 23.5692H44.7598L47.4973 9.74994H51.2878L54.3413 17.0784L60.1324 9.74994H64.1334Z" fill="currentColor"/>
<path d="M74.2418 21.1613H68.9772L67.6084 23.5692H62.6597L71.5042 9.74994H76.137L79.401 23.5692H74.7682L74.2418 21.1613ZM73.61 17.8112L72.9783 14.2517L70.9777 17.8112H73.61Z" fill="currentColor"/>
<path d="M29.282 29.8507L27.492 38.6448H24.5438L25.8073 32.1539H23.175L21.9115 38.6448H18.9634L20.7533 29.8507H29.282Z" fill="currentColor"/>
<path d="M37.3893 30.5836C37.6958 30.839 37.9402 31.1601 38.1042 31.5226C38.2683 31.8852 38.3479 32.28 38.337 32.6774C38.3245 33.3729 38.144 34.0551 37.8105 34.6666C37.4316 35.2415 36.8785 35.6816 36.2311 35.9229C35.4997 36.2314 34.7085 36.3745 33.9147 36.3416H32.4406L32.0195 38.5402H29.0713L30.8612 29.7461H34.757C35.7002 29.7498 36.6193 30.0422 37.3893 30.5836ZM35.0729 33.829C35.2834 33.6011 35.3967 33.3008 35.3888 32.9915C35.3888 32.3633 34.9676 32.154 34.2306 32.154H33.283L32.8618 34.2478H34.1253C34.473 34.1944 34.8001 34.0499 35.0729 33.829Z" fill="currentColor"/>
<path d="M42.5486 32.0493L42.338 33.0962H46.0232L45.602 35.19H41.9168L41.7063 36.3416H46.1285L45.7073 38.5402H38.3369L40.1269 29.7461H47.2867L46.8655 31.9446H42.5486V32.0493Z" fill="currentColor"/>
<path d="M49.3926 38.2261C48.7553 37.9179 48.2106 37.4486 47.8132 36.8651C47.4323 36.2734 47.2481 35.5775 47.2868 34.876C47.2552 33.916 47.5118 32.9684 48.0238 32.154C48.4987 31.3509 49.1922 30.6976 50.0244 30.2695C50.8917 29.7931 51.8786 29.575 52.8672 29.6414C53.627 29.608 54.3842 29.7513 55.0784 30.0602C55.6789 30.3326 56.1898 30.7681 56.5525 31.3164L54.4466 32.9915C54.2875 32.6592 54.032 32.3819 53.713 32.1953C53.394 32.0087 53.0261 31.9214 52.6567 31.9446C52.2165 31.9491 51.7837 32.0567 51.3932 32.2587C51.0352 32.495 50.7449 32.8197 50.5508 33.2009C50.3356 33.6222 50.2271 34.0894 50.235 34.5619C50.2332 34.7957 50.2789 35.0275 50.3694 35.2434C50.4598 35.4593 50.5932 35.6548 50.7614 35.8182C50.932 35.9702 51.1321 36.0858 51.3495 36.1579C51.5668 36.2299 51.7967 36.2568 52.0249 36.2369C52.4169 36.2273 52.8014 36.1278 53.1483 35.9462C53.4953 35.7646 53.7955 35.5058 54.0255 35.19L55.8154 36.8651C55.3433 37.4612 54.7277 37.9293 54.0255 38.2261C53.3312 38.5349 52.5741 38.6783 51.8143 38.6449C50.9834 38.7391 50.1427 38.5938 49.3926 38.2261Z" fill="currentColor"/>
<path d="M64.9761 32.0493H62.3438L61.0803 38.5402H58.1321L59.3956 32.0493H56.8687L57.2898 29.7461H65.3973L64.9761 32.0493Z" fill="currentColor"/>
<path d="M66.4501 29.8507H69.3983L68.4507 34.3525L72.3465 29.8507H75.1893L73.3994 38.6448H70.4512L71.3988 34.1431L67.503 38.6448H64.6602L66.4501 29.8507Z" fill="currentColor"/>
<path d="M87.0873 34.0384L88.4561 38.5402H85.0867L84.2444 35.3994H83.4021L82.7703 38.5402H79.9274L80.5592 35.3994H79.8222L77.7163 38.5402H74.2417L77.611 33.829L76.2422 29.7461H79.2957L80.2433 32.9915H81.191L81.8227 29.7461H84.6656L84.0338 32.9915H84.7709L87.0873 29.7461H90.246L87.0873 34.0384Z" fill="currentColor"/>
</svg>
