<svg width="195" height="55" viewBox="0 0 195 55" fill="none" xmlns="http://www.w3.org/2000/svg">
<g clip-path="url(#clip0_3738_1988)">
<path d="M194.732 13.2744C194.061 8.58759 192.45 5.23989 189.901 3.36518C187.505 1.58383 184.565 0.68485 181.581 0.82093C179.701 0.888119 177.863 1.39252 176.213 2.29392C174.99 2.9576 173.823 3.71889 172.724 4.57035C171.306 5.88018 169.728 7.00508 168.027 7.91805C167.377 8.29805 166.632 8.48397 165.88 8.45368C164.844 8.07437 163.853 7.58029 162.927 6.9807C160.344 5.26018 157.484 3.99218 154.473 3.23128C147.495 1.75829 142.664 5.23989 140.785 8.72149C138.37 12.8726 143.469 19.8358 147.092 24.7904C147.737 25.6832 148.3 26.4598 148.783 27.1204C148.816 27.1692 148.836 27.2258 148.84 27.2846C148.845 27.3434 148.833 27.4023 148.807 27.4553C148.782 27.5083 148.742 27.5535 148.693 27.5864C148.644 27.6193 148.587 27.6387 148.528 27.6427C146.274 27.8034 141.886 28.1783 136.451 28.5399L129.338 28.9416C124.507 29.3433 120.763 29.745 119.139 29.8789C118.737 29.8789 118.066 30.1467 118.066 30.2807C118.066 30.4146 118.469 30.5485 118.871 30.5485H126.118C135.377 30.5485 149.199 30.5485 152.688 30.4146C152.877 30.4111 153.062 30.3602 153.227 30.2666C153.391 30.173 153.529 30.0397 153.628 29.8789C153.739 29.6977 153.798 29.4891 153.798 29.2763C153.798 29.0636 153.739 28.855 153.628 28.6738C152.903 27.4686 151.749 25.8617 150.675 24.2548C149.199 21.9784 147.589 19.7019 146.515 17.9611C144.502 14.7473 142.758 10.9979 145.442 8.8554C147.359 7.35112 149.713 6.50566 152.152 6.44507C155.372 6.31116 159.935 8.45368 163.558 10.0606L166.645 11.3997C171.744 13.4083 173.354 12.7387 173.891 12.337C174.025 12.337 173.891 12.2031 173.891 12.0692C171.207 11.1318 170.402 10.5962 169.865 9.92667C175.904 4.43645 182.614 3.23127 187.311 6.84678C189.995 8.8554 191.068 13.0065 191.605 16.0864C191.823 18.2217 191.913 20.3681 191.873 22.514C191.739 25.1922 191.739 25.9956 192.41 27.3347C192.544 27.6025 193.081 28.4059 193.35 28.8077C193.367 28.8432 193.399 28.8702 193.436 28.8827C193.474 28.8953 193.515 28.8924 193.551 28.8746C193.586 28.8569 193.613 28.8257 193.626 28.7881C193.639 28.7504 193.636 28.7093 193.618 28.6738C193.355 27.9434 193.218 27.1735 193.215 26.3973C193.414 24.9463 193.728 23.5134 194.155 22.1123C194.751 19.864 195.014 17.5404 194.933 15.216C194.933 15.216 194.866 14.0778 194.732 13.2744Z" fill="white"/>
<path d="M193.309 35.9717C191.991 38.0303 191.241 40.4002 191.135 42.8412C191.333 44.3299 191.656 45.7992 192.102 47.2334C192.665 49.4161 192.236 50.3133 191.565 50.9828C191.427 51.1247 191.259 51.2344 191.073 51.3038C190.888 51.3733 190.689 51.4009 190.491 51.3845C189.149 51.3845 186.157 48.0636 184.305 44.6891C183.741 43.6848 181.795 40.5112 181.621 40.2434C180.279 38.3687 178.803 36.3601 175.045 37.0296C171.02 37.8331 170.751 47.3405 170.751 49.2152C170.751 50.0187 170.617 51.0899 169.946 51.2238C168.604 51.7595 164.954 49.1081 162.968 46.9388C160.854 44.185 158.883 41.3245 157.063 38.3687C156.898 38.128 156.678 37.9298 156.422 37.7902C156.165 37.6505 155.879 37.5734 155.587 37.5652H136.129C129.822 37.5652 123.246 37.6992 121.367 37.6992C120.696 37.6992 120.696 37.8331 120.696 37.967C120.696 38.1009 120.938 38.275 122.038 38.3687C141.899 39.44 140.96 38.9043 153.306 40.2434C154.514 40.3773 154.916 41.1808 155.855 42.3859C156.526 43.1894 157.197 44.2606 157.868 45.198C158.61 46.3152 159.417 47.3883 160.284 48.4118C162.261 51.0217 164.902 53.056 167.933 54.3037C169.543 54.9733 170.885 55.1072 171.825 54.4376C172.231 54.1878 172.559 53.8299 172.773 53.4041C172.986 52.9782 173.076 52.5014 173.032 52.0273C173.032 51.3578 173.032 50.8221 173.032 50.2865C173.017 48.3469 173.243 46.4128 173.703 44.5284C174.106 42.6537 175.18 40.5112 176.79 40.2434C178.4 39.9756 180.145 41.5825 182.024 44.9302C187.257 53.902 189.002 54.9733 191.417 54.9733C192.29 54.9314 193.11 54.5462 193.699 53.902C194.359 52.9964 194.754 51.9254 194.839 50.8087C195.027 48.9816 194.74 47.1372 194.007 45.4524C193.135 43.3768 192.008 39.6006 193.444 36.4136C193.712 35.9048 193.444 35.8378 193.309 35.9717Z" fill="white"/>
<path d="M5.11368 29.6111C3.80957 28.9747 2.69815 28.0043 1.89299 26.799C1.11728 25.5578 0.742513 24.1087 0.819424 22.6479C0.814249 20.7195 1.32375 18.8245 2.29557 17.1576C3.25589 15.5537 4.65166 14.2537 6.32143 13.4082C8.09963 12.4799 10.0856 12.019 12.0918 12.0691C13.6657 12.0157 15.2298 12.337 16.6545 13.0065C17.8618 13.556 18.8862 14.4389 19.6068 15.5507L15.3125 18.8984C14.9699 18.2779 14.4637 17.7627 13.8487 17.4086C13.2337 17.0546 12.5333 16.8752 11.8234 16.8898C10.9719 16.8871 10.1361 17.1188 9.40793 17.5594C8.66478 18.0124 8.06116 18.661 7.66339 19.4341C7.22176 20.3059 6.99191 21.2692 6.99241 22.2461C6.96166 22.7122 7.02939 23.1796 7.19122 23.6178C7.35304 24.0561 7.60535 24.4556 7.93178 24.7904C8.29354 25.1179 8.71748 25.3696 9.1785 25.5306C9.63951 25.6916 10.1282 25.7586 10.6157 25.7278C11.3761 25.7174 12.1237 25.5305 12.7991 25.1818C13.4746 24.8332 14.0595 24.3324 14.5073 23.7191L17.9964 27.0668C17.0624 28.2227 15.8665 29.1406 14.5073 29.745C13.0527 30.3041 11.5033 30.5769 9.94471 30.5484C8.28436 30.6007 6.63342 30.2804 5.11368 29.6111Z" fill="white"/>
<path d="M36.6497 17.1577H31.4161L28.8664 30.1468H22.9618L25.5115 17.1577H20.4121L21.3515 12.6048H37.5891L36.6497 17.1577Z" fill="white"/>
<path d="M40.6755 29.6111C39.3843 29.0083 38.3077 28.0274 37.589 26.799C36.8737 25.5327 36.5035 24.1014 36.5154 22.6479C36.5102 20.7195 37.0197 18.8245 37.9916 17.1577C38.9519 15.5537 40.3477 14.2537 42.0174 13.4082C43.7956 12.4799 45.7816 12.019 47.7878 12.0692C49.4049 12.0161 51.0124 12.337 52.4847 13.0065C53.7758 13.6094 54.8524 14.5902 55.5712 15.8186C56.2865 17.0849 56.6566 18.5162 56.6447 19.9697C56.6499 21.8981 56.1404 23.7931 55.1686 25.46C54.2083 27.0639 52.8125 28.3639 51.1427 29.2094C49.3645 30.1377 47.3786 30.5986 45.3723 30.5485C43.7564 30.5875 42.152 30.2673 40.6755 29.6111ZM48.4588 25.0582C49.1363 24.5143 49.686 23.8286 50.0691 23.0496C50.4521 22.21 50.6357 21.2935 50.6059 20.3715C50.6422 19.905 50.5768 19.4363 50.4143 18.9974C50.2518 18.5586 49.996 18.1601 49.6645 17.8293C49.333 17.4985 48.9336 17.2432 48.4938 17.081C48.054 16.9189 47.5843 16.8536 47.1169 16.8898C46.2653 16.8871 45.4295 17.1188 44.7013 17.5594C44.0238 18.1033 43.4741 18.789 43.091 19.568C42.7081 20.4077 42.5244 21.3241 42.5542 22.2462C42.5179 22.7126 42.5833 23.1813 42.7458 23.6202C42.9083 24.059 43.1641 24.4575 43.4956 24.7883C43.8272 25.1192 44.2265 25.3744 44.6663 25.5366C45.1061 25.6987 45.5758 25.764 46.0433 25.7278C46.8948 25.7305 47.7307 25.4988 48.4588 25.0582Z" fill="white"/>
<path d="M81.7393 12.4709L78.2502 30.1467H72.8824L74.4928 22.1122L69.3933 28.5398H66.7094L64.0255 22.2461L62.4152 30.1467H57.0474L60.5364 12.4709H65.3675L69.2591 21.8444L76.6399 12.4709H81.7393Z" fill="white"/>
<path d="M94.6223 27.0668H87.9126L86.168 30.1467H79.8608L91.1332 12.4709H97.0378L101.198 30.1467H95.2933L94.6223 27.0668ZM93.8171 22.7818L93.012 18.2289L90.4623 22.7818H93.8171Z" fill="white"/>
<path d="M37.3206 38.1812L35.0393 49.4294H31.2818L32.8921 41.1271H29.5372L27.9269 49.4294H24.1694L26.4508 38.1812H37.3206Z" fill="white"/>
<path d="M47.6537 39.1186C48.0442 39.4453 48.3557 39.8559 48.5648 40.3197C48.774 40.7834 48.8754 41.2883 48.8614 41.7967C48.8456 42.6862 48.6155 43.5589 48.1905 44.341C47.7076 45.0764 47.0026 45.6392 46.1775 45.9479C45.2454 46.3426 44.237 46.5255 43.2252 46.4835H41.3465L40.8097 49.2955H37.0522L39.3336 38.0473H44.2988C45.5008 38.052 46.6722 38.4261 47.6537 39.1186ZM44.7014 43.2697C44.9697 42.9782 45.114 42.5941 45.104 42.1984C45.104 41.395 44.5672 41.1272 43.6278 41.1272H42.4201L41.8833 43.8053H43.4936C43.9368 43.7371 44.3536 43.5522 44.7014 43.2697Z" fill="white"/>
<path d="M54.2291 40.9933L53.9608 42.3323H58.6576L58.1208 45.0105H53.424L53.1556 46.4835H58.7918L58.255 49.2955H48.8613L51.1427 38.0473H60.2679L59.7312 40.8593H54.2291V40.9933Z" fill="white"/>
<path d="M62.952 48.8938C62.1398 48.4996 61.4456 47.8993 60.9391 47.153C60.4536 46.3962 60.2189 45.5061 60.2681 44.6088C60.2279 43.3809 60.5549 42.1689 61.2075 41.1272C61.8127 40.1 62.6966 39.2644 63.7572 38.7169C64.8626 38.1074 66.1205 37.8285 67.3805 37.9134C68.3488 37.8706 69.3138 38.0541 70.1986 38.449C70.9639 38.7975 71.6152 39.3545 72.0773 40.0559L69.3934 42.1985C69.1907 41.7734 68.865 41.4187 68.4584 41.1801C68.0518 40.9414 67.5829 40.8297 67.1121 40.8594C66.5512 40.8652 65.9995 41.0028 65.5018 41.2611C65.0455 41.5634 64.6756 41.9787 64.4282 42.4663C64.1539 43.0051 64.0157 43.6027 64.0256 44.2071C64.0234 44.5062 64.0816 44.8027 64.1969 45.0788C64.3122 45.3549 64.4822 45.605 64.6966 45.814C64.914 46.0084 65.1691 46.1563 65.4461 46.2485C65.7231 46.3406 66.0161 46.375 66.3069 46.3496C66.8065 46.3372 67.2965 46.2099 67.7388 45.9777C68.181 45.7454 68.5636 45.4144 68.8566 45.0105L71.138 47.153C70.5363 47.9155 69.7517 48.5142 68.8566 48.8938C67.9719 49.2888 67.0069 49.4722 66.0385 49.4295C64.9795 49.5501 63.9081 49.3641 62.952 48.8938Z" fill="white"/>
<path d="M82.813 40.9933H79.4581L77.8478 49.2955H74.0903L75.7007 40.9933H72.48L73.0168 38.0473H83.3498L82.813 40.9933Z" fill="white"/>
<path d="M84.6915 38.1812H88.4489L87.2412 43.9392L92.2064 38.1812H95.8297L93.5484 49.4294H89.7909L90.9987 43.6714L86.0334 49.4294H82.4102L84.6915 38.1812Z" fill="white"/>
<path d="M110.994 43.5375L112.738 49.2955H108.444L107.371 45.2783H106.297L105.492 49.2955H101.869L102.674 45.2783H101.734L99.0505 49.2955H94.6221L98.9163 43.2697L97.1718 38.0473H101.063L102.271 42.1984H103.479L104.284 38.0473H107.907L107.102 42.1984H108.042L110.994 38.0473H115.02L110.994 43.5375Z" fill="white"/>
</g>
<defs>
<clipPath id="clip0_3738_1988">
<rect width="195" height="55" fill="white"/>
</clipPath>
</defs>
</svg>
