<svg width="64" height="64" viewBox="0 0 64 64" fill="none" xmlns="http://www.w3.org/2000/svg">
<g opacity="0.5">
<path d="M59 19.358V12C58.9966 9.08367 57.8365 6.28778 55.7744 4.22563C53.7122 2.16347 50.9163 1.00344 48 1H38C35.0837 1.00344 32.2878 2.16347 30.2256 4.22563C28.1635 6.28778 27.0034 9.08367 27 12V22C27 22.7956 27.3161 23.5587 27.8787 24.1213C28.4413 24.6839 29.2044 25 30 25H31.046C31.2722 27.4717 32.3608 29.7851 34.121 31.535L35.465 32.879C36.1964 33.6108 37.0301 34.2326 37.94 34.725C37.7978 35.9013 37.2306 36.9851 36.3451 37.7725C35.4596 38.5598 34.3169 38.9964 33.132 39H32.832C31.8037 38.9996 30.7854 39.2018 29.8353 39.595C28.8851 39.9882 28.0218 40.5647 27.2945 41.2916C26.5672 42.0186 25.9902 42.8816 25.5965 43.8316C25.2028 44.7815 25.0001 45.7997 25 46.828V56C25 56.2652 25.1054 56.5196 25.2929 56.7071C25.4804 56.8946 25.7348 57 26 57V62H28V57H30.98L30.02 61.8C29.9903 61.9453 29.9934 62.0954 30.0289 62.2394C30.0644 62.3834 30.1315 62.5177 30.2253 62.6325C30.3191 62.7474 30.4373 62.84 30.5712 62.9035C30.7052 62.9671 30.8517 63 31 63H55C55.1483 63 55.2948 62.9671 55.4288 62.9035C55.5627 62.84 55.6809 62.7474 55.7747 62.6325C55.8685 62.5177 55.9356 62.3834 55.9711 62.2394C56.0066 62.0954 56.0097 61.9453 55.98 61.8L55.02 57H58V62H60V57C60.2652 57 60.5196 56.8946 60.7071 56.7071C60.8946 56.5196 61 56.2652 61 56V46.828C60.9997 44.752 60.1749 42.761 58.7069 41.2931C57.239 39.8251 55.248 39.0003 53.172 39H53C51.8016 38.9954 50.6448 38.5605 49.7401 37.7746C48.8354 36.9887 48.2431 35.904 48.071 34.718C48.9763 34.2269 49.8059 33.6075 50.534 32.879L51.878 31.535C52.4207 30.9882 52.9031 30.3848 53.317 29.735C54.0018 30.2697 54.7948 30.6492 55.6408 30.8471C56.4868 31.0449 57.3658 31.0565 58.2167 30.881C59.0677 30.7055 59.8703 30.347 60.569 29.8305C61.2677 29.314 61.8457 28.6518 62.2631 27.8897C62.6805 27.1276 62.9271 26.2839 62.9861 25.4171C63.045 24.5502 62.9147 23.6809 62.6044 22.8693C62.294 22.0578 61.8109 21.3234 61.1885 20.7171C60.5661 20.1108 59.8194 19.6471 59 19.358ZM38 3H48C50.3861 3.00265 52.6738 3.95171 54.361 5.63896C56.0483 7.32622 56.9974 9.61386 57 12V19.184C56.6797 19.0656 56.3414 19.0033 56 19H55V16C55 15.7348 54.8946 15.4804 54.7071 15.2929C54.5196 15.1054 54.2652 15 54 15H52C50.745 14.9967 49.5045 14.7325 48.3571 14.2241C47.2097 13.7157 46.1806 12.9743 45.335 12.047C46.2213 11.3246 47.0364 10.5189 47.769 9.641L46.231 8.359C44.762 10.1269 42.9213 11.549 40.8398 12.524C38.7584 13.499 36.4875 14.003 34.189 14H32C31.7348 14 31.4804 14.1054 31.2929 14.2929C31.1054 14.4804 31 14.7348 31 15V19H30C29.6586 19.0033 29.3203 19.0656 29 19.184V12C29.0026 9.61386 29.9517 7.32622 31.639 5.63896C33.3262 3.95171 35.6139 3.00265 38 3ZM48.675 39.493C49.4949 40.1408 50.4497 40.5963 51.469 40.826L50.476 42.812C50.2786 43.2066 50.019 43.5669 49.707 43.879C48.989 44.5968 48.0153 45 47 45C45.9847 45 45.011 44.5968 44.293 43.879C44.1054 43.6915 44.0001 43.4372 44 43.172V41.918C45.16 41.7529 46.2602 41.2998 47.2 40.6L48.675 39.493ZM42 43.172C41.9999 43.4372 41.8946 43.6915 41.707 43.879C40.989 44.5968 40.0153 45 39 45C37.9847 45 37.011 44.5968 36.293 43.879C35.981 43.5669 35.7214 43.2066 35.524 42.812L34.545 40.852C35.5761 40.634 36.5427 40.1802 37.369 39.526L38.8 40.6C39.74 41.2995 40.8401 41.7526 42 41.918V43.172ZM27 55V53H31.78L31.38 55H27ZM54.22 53H59V55H54.62L54.22 53ZM59 46.828V51H53C52.8517 51 52.7052 51.0329 52.5712 51.0965C52.4373 51.16 52.3191 51.2526 52.2253 51.3675C52.1315 51.4823 52.0644 51.6166 52.0289 51.7606C51.9934 51.9046 51.9903 52.0547 52.02 52.2L53.78 61H32.22L33.98 52.2C34.0097 52.0547 34.0066 51.9046 33.9711 51.7606C33.9356 51.6166 33.8685 51.4823 33.7747 51.3675C33.6809 51.2526 33.5627 51.16 33.4288 51.0965C33.2948 51.0329 33.1483 51 33 51H27V46.828C26.9989 45.3579 27.5544 43.9418 28.555 42.8647C29.5555 41.7875 30.9268 41.1292 32.393 41.022L33.735 43.705C34.028 44.2927 34.4143 44.829 34.879 45.293C35.9513 46.3664 37.4006 46.9784 38.9177 46.9984C40.4349 47.0184 41.8998 46.4448 43 45.4C44.1005 46.4445 45.5655 47.0178 47.0827 46.9974C48.5998 46.977 50.0489 46.3647 51.121 45.291C51.5855 44.8272 51.9718 44.2913 52.265 43.704L53.607 41.02C55.0736 41.1272 56.4451 41.7858 57.4457 42.8634C58.4463 43.941 59.0016 45.3575 59 46.828ZM47.289 38.028L46 39C45.126 39.6287 44.0766 39.967 43 39.967C41.9234 39.967 40.874 39.6287 40 39L38.753 38.065C39.2892 37.3037 39.6635 36.4406 39.853 35.529C41.9112 36.1601 44.1116 36.1569 46.168 35.52C46.3701 36.4241 46.7513 37.2786 47.289 38.033V38.028ZM50.465 30.116L49.121 31.46C47.4975 33.0832 45.2958 33.9952 43 33.9952C40.7042 33.9952 38.5025 33.0832 36.879 31.46L35.535 30.116C34.7293 29.3146 34.0905 28.3615 33.6554 27.3117C33.2203 26.262 32.9975 25.1364 33 24C33 23.7348 32.8946 23.4804 32.7071 23.2929C32.5196 23.1054 32.2652 23 32 23H30C29.7348 23 29.4804 22.8946 29.2929 22.7071C29.1054 22.5196 29 22.2652 29 22C29 21.7348 29.1054 21.4804 29.2929 21.2929C29.4804 21.1054 29.7348 21 30 21H32C32.2652 21 32.5196 20.8946 32.7071 20.7071C32.8946 20.5196 33 20.2652 33 20V16H34.189C37.5614 16.0039 40.8642 15.0409 43.706 13.225C44.741 14.4073 46.016 15.3555 47.4461 16.0064C48.8763 16.6573 50.4287 16.996 52 17H53V20C53 20.2652 53.1054 20.5196 53.2929 20.7071C53.4804 20.8946 53.7348 21 54 21H56C56.2652 21 56.5196 21.1054 56.7071 21.2929C56.8946 21.4804 57 21.7348 57 22C57 22.2652 56.8946 22.5196 56.7071 22.7071C56.5196 22.8946 56.2652 23 56 23H54C53.7348 23 53.4804 23.1054 53.2929 23.2929C53.1054 23.4804 53 23.7348 53 24C53.0031 25.1372 52.7807 26.2637 52.3456 27.3144C51.9104 28.3651 51.2713 29.319 50.465 30.121V30.116ZM57 29C55.9786 28.9956 54.9984 28.5969 54.264 27.887C54.6288 26.9619 54.8611 25.99 54.954 25H56C56.7956 25 57.5587 24.6839 58.1213 24.1213C58.6839 23.5587 59 22.7956 59 22V21.543C59.7591 21.9848 60.3516 22.6642 60.6862 23.4763C61.0208 24.2883 61.0788 25.1879 60.8512 26.0362C60.6237 26.8845 60.1233 27.6344 59.4273 28.17C58.7313 28.7056 57.8783 28.9973 57 29Z" fill="#D72642"/>
<path d="M44 49H42V51H44V49Z" fill="#D72642"/>
<path d="M44 53H42V55H44V53Z" fill="#D72642"/>
<path d="M44 57H42V59H44V57Z" fill="#D72642"/>
<path d="M21.9481 31.03C21.8895 30.8553 21.7838 30.7002 21.6426 30.5818C21.5014 30.4634 21.3303 30.3863 21.1481 30.359L16.8421 29.7L14.9051 25.575C14.8243 25.4032 14.6963 25.258 14.5361 25.1562C14.3758 25.0545 14.1899 25.0004 14.0001 25.0004C13.8102 25.0004 13.6243 25.0545 13.4641 25.1562C13.3038 25.258 13.1758 25.4032 13.0951 25.575L11.1581 29.7L6.84907 30.359C6.66729 30.3867 6.49667 30.464 6.35596 30.5824C6.21526 30.7008 6.10992 30.8557 6.05152 31.03C5.99313 31.2044 5.98394 31.3915 6.02496 31.5707C6.06599 31.75 6.15564 31.9144 6.28407 32.046L9.43207 35.271L8.68707 39.839C8.657 40.0241 8.67959 40.214 8.75226 40.3869C8.82493 40.5598 8.94476 40.7087 9.09806 40.8168C9.25135 40.9248 9.43194 40.9876 9.6192 40.9979C9.80646 41.0082 9.99284 40.9656 10.1571 40.875L14.0001 38.751L17.8431 40.875C17.9907 40.9573 18.157 41.0004 18.3261 41C18.471 41 18.6142 40.9685 18.7458 40.9077C18.8774 40.8469 18.9941 40.7582 19.088 40.6477C19.1819 40.5373 19.2506 40.4078 19.2895 40.2681C19.3284 40.1285 19.3364 39.9821 19.3131 39.839L18.5681 35.271L21.7161 32.046C21.8444 31.9144 21.934 31.7499 21.9749 31.5706C22.0158 31.3914 22.0065 31.2043 21.9481 31.03ZM16.7841 34.236C16.6747 34.3481 16.5932 34.4844 16.5461 34.6337C16.4991 34.7831 16.4877 34.9415 16.5131 35.096L17.0081 38.129L14.4831 36.729C14.3352 36.6474 14.169 36.6046 14.0001 36.6046C13.8311 36.6046 13.665 36.6474 13.5171 36.729L10.9921 38.129L11.4871 35.096C11.5124 34.9415 11.5011 34.7831 11.454 34.6337C11.4069 34.4844 11.3254 34.3481 11.2161 34.236L9.07507 32.042L11.9881 31.597C12.1504 31.5721 12.3041 31.5077 12.4356 31.4093C12.5671 31.3109 12.6724 31.1817 12.7421 31.033L14.0001 28.354L15.2581 31.033C15.3278 31.1817 15.433 31.3109 15.5645 31.4093C15.696 31.5077 15.8497 31.5721 16.0121 31.597L18.9251 32.042L16.7841 34.236Z" fill="#D72642"/>
<path d="M14 21C11.4288 21 8.91543 21.7624 6.77759 23.1909C4.63975 24.6194 2.97351 26.6497 1.98957 29.0251C1.00563 31.4006 0.748189 34.0144 1.2498 36.5362C1.75141 39.0579 2.98953 41.3743 4.80762 43.1924C6.6257 45.0105 8.94208 46.2486 11.4638 46.7502C13.9856 47.2518 16.5995 46.9944 18.9749 46.0104C21.3503 45.0265 23.3807 43.3603 24.8091 41.2224C26.2376 39.0846 27 36.5712 27 34C26.996 30.5534 25.6251 27.2491 23.188 24.812C20.7509 22.3749 17.4466 21.004 14 21ZM14 45C11.8244 45 9.69767 44.3549 7.88873 43.1462C6.07979 41.9375 4.66989 40.2195 3.83733 38.2095C3.00477 36.1995 2.78693 33.9878 3.21137 31.854C3.63581 29.7202 4.68345 27.7602 6.22183 26.2218C7.76021 24.6834 9.72022 23.6358 11.854 23.2114C13.9878 22.7869 16.1995 23.0048 18.2095 23.8373C20.2195 24.6699 21.9375 26.0798 23.1462 27.8887C24.3549 29.6977 25 31.8244 25 34C24.9966 36.9163 23.8365 39.7122 21.7744 41.7744C19.7122 43.8365 16.9163 44.9966 14 45Z" fill="#D72642"/>
</g>
</svg>
