<svg width="64" height="64" viewBox="0 0 64 64" fill="none" xmlns="http://www.w3.org/2000/svg">
<g opacity="0.5" clip-path="url(#clip0_3924_566)">
<path d="M60.1994 30.7776H58.2437V30.1752C58.2437 28.9502 57.2454 27.9536 56.0183 27.9536H54.6612C53.4343 27.9536 52.4361 28.9502 52.4361 30.1752V30.7776H47.3479V30.1752C47.3479 29.0341 46.4813 28.092 45.3708 27.9684V0.999616C45.3708 0.447741 44.9234 0.000366211 44.3716 0.000366211H1.00145C0.449572 0.000366211 0.00219727 0.447741 0.00219727 0.999616V63.0004C0.00219727 63.5522 0.449572 63.9996 1.00145 63.9996H60.1994C62.2938 63.9996 63.9978 62.4036 63.9978 60.4421V34.3315C63.9977 32.3719 62.2938 30.7776 60.1994 30.7776ZM54.4346 30.1751C54.4346 30.0541 54.5383 29.9519 54.6612 29.9519H56.0183C56.1412 29.9519 56.2451 30.0541 56.2451 30.1751V34.1189C56.2451 34.2399 56.1412 34.342 56.0183 34.342H54.6612C54.5384 34.342 54.4346 34.2399 54.4346 34.1189V30.1751ZM52.4359 32.776V34.1189C52.4359 35.3439 53.4341 36.3405 54.6611 36.3405H56.0182C57.2452 36.3405 58.2436 35.3437 58.2436 34.1189V32.776H60.1993C61.1917 32.776 61.9991 33.4739 61.9991 34.3315V37.9916H27.4451V34.3315C27.4451 33.4739 28.2526 32.776 29.2451 32.776H30.6446V34.1189C30.6446 35.3439 31.6428 36.3405 32.8698 36.3405H34.2269C35.4538 36.3405 36.4521 35.3437 36.4521 34.1189V32.776H41.5402V34.1189C41.5402 35.3439 42.5384 36.3405 43.7656 36.3405H45.1224C46.3494 36.3405 47.3478 35.3437 47.3478 34.1189V32.776H52.4359ZM32.6432 34.1189V30.1751C32.6432 30.0541 32.7469 29.9519 32.8698 29.9519H34.2269C34.3497 29.9519 34.4536 30.0541 34.4536 30.1751V34.1189C34.4536 34.2399 34.3498 34.342 34.2269 34.342H32.8698C32.7469 34.342 32.6432 34.2399 32.6432 34.1189ZM45.1224 29.952C45.2453 29.952 45.3492 30.0542 45.3492 30.1752V34.119C45.3492 34.24 45.2453 34.3421 45.1224 34.3421H43.7656C43.6427 34.3421 43.5388 34.24 43.5388 34.119V30.1752C43.5388 30.0542 43.6427 29.952 43.7656 29.952H45.1224ZM2.0007 1.99887H43.3722V27.9905C42.3324 28.1767 41.5403 29.0844 41.5403 30.1752V30.7776H36.4522V30.1752C36.4522 28.9502 35.4541 27.9536 34.2271 27.9536H32.8699C31.6431 27.9536 30.6447 28.9502 30.6447 30.1752V30.7776H29.2452C27.1507 30.7776 25.4466 32.3719 25.4466 34.3316V60.4422C25.4466 61.0011 25.5853 61.5301 25.8316 62.0012H2.0007V1.99887ZM60.1994 62.0011H29.2451C28.2693 62.0011 27.4451 61.2872 27.4451 60.4421V39.9902H61.9993V60.4421C61.9992 61.3017 61.1918 62.0011 60.1994 62.0011ZM37.7383 43.055H32.6076C32.0557 43.055 31.6083 43.5024 31.6083 44.0542V49.1815C31.6083 49.7334 32.0557 50.1807 32.6076 50.1807H37.7383C38.2902 50.1807 38.7376 49.7334 38.7376 49.1815V44.0542C38.7376 43.5025 38.2902 43.055 37.7383 43.055ZM36.7391 48.1822H33.6068V45.0536H36.7391V48.1822ZM47.1989 43.055H42.0717C41.5198 43.055 41.0724 43.5024 41.0724 44.0542V49.1815C41.0724 49.7334 41.5198 50.1807 42.0717 50.1807H47.1989C47.7508 50.1807 48.1982 49.7334 48.1982 49.1815V44.0542C48.1982 43.5025 47.7508 43.055 47.1989 43.055ZM46.1997 48.1822H43.0711V45.0536H46.1997V48.1822ZM37.7383 51.8105H32.6076C32.0557 51.8105 31.6083 52.2579 31.6083 52.8097V57.937C31.6083 58.4889 32.0557 58.9362 32.6076 58.9362H37.7383C38.2902 58.9362 38.7376 58.4889 38.7376 57.937V52.8097C38.7376 52.2579 38.2902 51.8105 37.7383 51.8105ZM36.7391 56.9377H33.6068V53.8091H36.7391V56.9377ZM47.1989 51.8105H42.0717C41.5198 51.8105 41.0724 52.2579 41.0724 52.8097V57.937C41.0724 58.4889 41.5198 58.9362 42.0717 58.9362H47.1989C47.7508 58.9362 48.1982 58.4889 48.1982 57.937V52.8097C48.1982 52.2579 47.7508 51.8105 47.1989 51.8105ZM46.1997 56.9377H43.0711V53.8091H46.1997V56.9377ZM56.8403 43.055H51.7097C51.1578 43.055 50.7104 43.5024 50.7104 44.0542V49.1815C50.7104 49.7334 51.1578 50.1807 51.7097 50.1807H56.8403C57.3922 50.1807 57.8396 49.7334 57.8396 49.1815V44.0542C57.8396 43.5025 57.3922 43.055 56.8403 43.055ZM55.8411 48.1822H52.7089V45.0536H55.8411V48.1822ZM56.8403 51.8105H51.7097C51.1578 51.8105 50.7104 52.2579 50.7104 52.8097V57.937C50.7104 58.4889 51.1578 58.9362 51.7097 58.9362H56.8403C57.3922 58.9362 57.8396 58.4889 57.8396 57.937V52.8097C57.8396 52.2579 57.3922 51.8105 56.8403 51.8105ZM55.8411 56.9377H52.7089V53.8091H55.8411V56.9377ZM6.13545 17.8727V7.13299C6.13545 6.58112 6.58282 6.13374 7.1347 6.13374H18.7463C19.2982 6.13374 19.7456 6.58112 19.7456 7.13299C19.7456 7.68487 19.2982 8.13224 18.7463 8.13224H8.13395V16.8736H17.7469V13.8326L15.8886 15.5195C15.6977 15.6927 15.4572 15.7789 15.2171 15.7789C14.9611 15.7789 14.7054 15.681 14.5109 15.4867L12.2326 13.2119C11.8421 12.822 11.8416 12.1892 12.2316 11.7987C12.6212 11.4082 13.2541 11.4077 13.6447 11.7976L15.2498 13.4002L20.0729 9.02237C20.4816 8.65149 21.1132 8.68187 21.4844 9.09062C21.8553 9.49924 21.8248 10.1311 21.4162 10.5021L19.7456 12.0185V17.8727C19.7456 18.4246 19.2982 18.872 18.7463 18.872H7.1347C6.58282 18.872 6.13545 18.4246 6.13545 17.8727ZM6.13545 37.3681V26.6319C6.13545 26.08 6.58282 25.6326 7.1347 25.6326H18.7463C19.2982 25.6326 19.7456 26.08 19.7456 26.6319C19.7456 27.1837 19.2982 27.6311 18.7463 27.6311H8.13395V36.3689H17.7469V33.3314L15.8886 35.0182C15.6977 35.1916 15.4572 35.2776 15.2171 35.2776C14.9608 35.2776 14.7049 35.1796 14.5104 34.9849L12.2321 32.7065C11.8418 32.3162 11.8418 31.6836 12.2321 31.2934C12.6222 30.9031 13.2551 30.9031 13.6452 31.2934L15.2503 32.8985L20.0729 28.5211C20.4816 28.1501 21.1132 28.1806 21.4844 28.5894C21.8553 28.998 21.8248 29.6299 21.4162 30.0009L19.7456 31.5172V37.3681C19.7456 37.92 19.2982 38.3674 18.7463 38.3674H7.1347C6.58282 38.3674 6.13545 37.92 6.13545 37.3681ZM21.4847 48.0886C21.8554 48.4974 21.8247 49.1292 21.4158 49.5L19.7456 51.015V56.8669C19.7456 57.4187 19.2982 57.8661 18.7463 57.8661H7.1347C6.58282 57.8661 6.13545 57.4187 6.13545 56.8669V46.1306C6.13545 45.5787 6.58282 45.1314 7.1347 45.1314H18.7463C19.2982 45.1314 19.7456 45.5787 19.7456 46.1306C19.7456 46.6825 19.2982 47.1299 18.7463 47.1299H8.13395V55.8675H17.7469V52.8276L15.8882 54.5136C15.6974 54.6867 15.4571 54.7727 15.2171 54.7727C14.9611 54.7727 14.7054 54.6749 14.5109 54.4805L12.2326 52.2056C11.8421 51.8157 11.8416 51.183 12.2316 50.7925C12.6212 50.402 13.2541 50.4015 13.6447 50.7915L15.2501 52.3944L20.0733 48.0195C20.4818 47.6489 21.1137 47.6796 21.4847 48.0886ZM25.4464 7.13299C25.4464 6.58112 25.8938 6.13374 26.4457 6.13374H39.4391C39.9909 6.13374 40.4383 6.58112 40.4383 7.13299C40.4383 7.68487 39.9909 8.13224 39.4391 8.13224H26.4457C25.8938 8.13224 25.4464 7.68487 25.4464 7.13299ZM25.4464 12.5011C25.4464 11.9492 25.8938 11.5019 26.4457 11.5019H39.4391C39.9909 11.5019 40.4383 11.9492 40.4383 12.5011C40.4383 13.053 39.9909 13.5004 39.4391 13.5004H26.4457C25.8938 13.5004 25.4464 13.053 25.4464 12.5011Z" fill="#D72642"/>
</g>
<defs>
<clipPath id="clip0_3924_566">
<rect width="64" height="64" fill="white"/>
</clipPath>
</defs>
</svg>
