<svg width="64" height="64" viewBox="0 0 64 64" fill="none" xmlns="http://www.w3.org/2000/svg">
<g opacity="0.5" clip-path="url(#clip0_3924_1011)">
<path d="M61.0905 32.2685V23.2734C61.0905 20.2233 58.7247 17.7427 55.7355 17.5022L47.382 2.9115C46.6079 1.56207 45.3578 0.597588 43.8621 0.197094C42.3734 -0.200672 40.8167 0.00823387 39.4843 0.783721L10.848 17.4553H5.81862C2.6099 17.4553 0.000488281 20.0645 0.000488281 23.2734V58.1819C0.000488281 61.3906 2.60976 64 5.81862 64H55.2724C58.4811 64 61.0905 61.3908 61.0905 58.1819V49.1868C62.7799 48.5844 63.9995 46.985 63.9995 45.0912V36.3641C63.9995 34.4703 62.7799 32.8709 61.0905 32.2685ZM52.3552 17.4553H39.6776L49.1859 11.9195L52.3552 17.4553ZM47.7406 9.39508L33.896 17.4553H28.1534L46.3047 6.88726L47.7406 9.39508ZM40.9487 3.29782C41.6064 2.91287 42.3748 2.8106 43.1092 3.00668C43.8521 3.2055 44.4715 3.68563 44.8564 4.35748L44.8594 4.3628L22.3721 17.4553H16.6298L40.9487 3.29782ZM58.1814 58.1819C58.1814 59.7855 56.876 61.0909 55.2724 61.0909H5.81862C4.21501 61.0909 2.90962 59.7855 2.90962 58.1819V23.2734C2.90962 21.6698 4.21501 20.3644 5.81862 20.3644H55.2724C56.876 20.3644 58.1814 21.6698 58.1814 23.2734V32.0005H49.4543C44.6418 32.0005 40.7271 35.9152 40.7271 40.7277C40.7271 45.5401 44.6418 49.4548 49.4543 49.4548H58.1814V58.1819ZM61.0905 45.0912C61.0905 45.8937 60.4386 46.5458 59.636 46.5458H49.4543C46.2456 46.5458 43.6361 43.9365 43.6361 40.7277C43.6361 37.5189 46.2454 34.9095 49.4543 34.9095H59.636C60.4385 34.9095 61.0905 35.5615 61.0905 36.3641V45.0912Z" fill="#D72642"/>
<path d="M49.4544 37.8186C47.8508 37.8186 46.5454 39.124 46.5454 40.7276C46.5454 42.3312 47.8508 43.6366 49.4544 43.6366C51.058 43.6366 52.3634 42.3312 52.3634 40.7276C52.3635 39.124 51.0582 37.8186 49.4544 37.8186Z" fill="#D72642"/>
</g>
<defs>
<clipPath id="clip0_3924_1011">
<rect width="64" height="64" fill="white"/>
</clipPath>
</defs>
</svg>
