<svg width="64" height="64" viewBox="0 0 64 64" fill="none" xmlns="http://www.w3.org/2000/svg">
<g opacity="0.5" clip-path="url(#clip0_3924_706)">
<path d="M31.9999 10.4348C32.7652 10.4348 33.3913 9.80872 33.3913 9.0435V8.34785C33.3913 7.58263 32.7652 6.95654 31.9999 6.95654C31.2347 6.95654 30.6086 7.58263 30.6086 8.34785V9.0435C30.6086 9.80872 31.2347 10.4348 31.9999 10.4348Z" fill="#D72642"/>
<path d="M31.9999 53.5652C31.2347 53.5652 30.6086 54.1913 30.6086 54.9565V55.6521C30.6086 56.4174 31.2347 57.0434 31.9999 57.0434C32.7652 57.0434 33.3913 56.4174 33.3913 55.6521V54.9565C33.3913 54.1913 32.7652 53.5652 31.9999 53.5652Z" fill="#D72642"/>
<path d="M9.0435 30.6087H8.34785C7.58263 30.6087 6.95654 31.2348 6.95654 32C6.95654 32.7652 7.58263 33.3913 8.34785 33.3913H9.0435C9.80872 33.3913 10.4348 32.7652 10.4348 32C10.4348 31.2348 9.80872 30.6087 9.0435 30.6087Z" fill="#D72642"/>
<path d="M55.6521 30.6087H54.9565C54.1913 30.6087 53.5652 31.2348 53.5652 32C53.5652 32.7652 54.1913 33.3913 54.9565 33.3913H55.6521C56.4174 33.3913 57.0434 32.7652 57.0434 32C57.0434 31.2348 56.4174 30.6087 55.6521 30.6087Z" fill="#D72642"/>
<path d="M16.2783 14.3304C15.7218 13.7739 14.887 13.7739 14.3305 14.3304C13.774 14.8869 13.774 15.7217 14.3305 16.2782L14.8174 16.7652C15.0957 17.0435 15.4435 17.1826 15.7913 17.1826C16.1392 17.1826 16.487 17.0435 16.7653 16.7652C17.3218 16.2087 17.3218 15.3739 16.7653 14.8174L16.2783 14.3304Z" fill="#D72642"/>
<path d="M14.8174 47.2348L14.3305 47.7217C13.774 48.2782 13.774 49.113 14.3305 49.6696C14.6087 49.9478 14.9566 50.0869 15.3044 50.0869C15.6522 50.0869 16 49.9478 16.2783 49.6696L16.7653 49.1826C17.3218 48.6261 17.3218 47.7913 16.7653 47.2348C16.2087 46.6783 15.374 46.6783 14.8174 47.2348Z" fill="#D72642"/>
<path d="M47.7217 14.3304L47.2348 14.8174C46.6783 15.3739 46.6783 16.2087 47.2348 16.7652C47.513 17.0435 47.8609 17.1826 48.2087 17.1826C48.5565 17.1826 48.9043 17.0435 49.1826 16.7652L49.6696 16.2782C50.2261 15.7217 50.2261 14.8869 49.6696 14.3304C49.113 13.7739 48.2783 13.7739 47.7217 14.3304Z" fill="#D72642"/>
<path d="M33.3913 31.4435V18.7826C33.3913 18.0174 32.7652 17.3913 31.9999 17.3913C31.2347 17.3913 30.6086 18.0174 30.6086 18.7826V32C30.6086 32.3478 30.7478 32.6956 31.026 32.9739L46.2608 48.2087C46.5391 48.487 46.8869 48.6261 47.2347 48.6261C47.5826 48.6261 47.9304 48.487 48.2086 48.2087C48.7652 47.6522 48.7652 46.8174 48.2086 46.2609L33.3913 31.4435Z" fill="#D72642"/>
<path d="M32 0C14.3304 0 0 14.3304 0 32C0 49.6696 14.3304 64 32 64C49.6696 64 64 49.6696 64 32C64 14.3304 49.6696 0 32 0ZM32 61.2174C15.8609 61.2174 2.78261 48.1391 2.78261 32C2.78261 15.8609 15.8609 2.78261 32 2.78261C48.1391 2.78261 61.2174 15.8609 61.2174 32C61.2174 48.1391 48.1391 61.2174 32 61.2174Z" fill="#D72642"/>
</g>
<defs>
<clipPath id="clip0_3924_706">
<rect width="64" height="64" fill="white"/>
</clipPath>
</defs>
</svg>
